<svg width="33" height="34" viewBox="0 0 33 34" fill="none" xmlns="http://www.w3.org/2000/svg">
<path d="M20.5454 12.9138L19.1969 12.9138C19.1969 13.6586 19.8007 14.2623 20.5454 14.2623L20.5454 12.9138ZM24.5909 11.5653L20.5454 11.5653L20.5454 14.2623L24.5909 14.2623L24.5909 11.5653ZM21.8939 12.9138L21.8939 8.86836L19.1969 8.86836L19.1969 12.9138L21.8939 12.9138ZM21.8939 8.86836C21.8939 7.37887 23.1014 6.17139 24.5909 6.17139L24.5909 3.47442C21.6119 3.47442 19.1969 5.88937 19.1969 8.86836L21.8939 8.86836ZM27.2878 8.86836C27.2878 10.3579 26.0804 11.5653 24.5909 11.5653L24.5909 14.2623C27.5699 14.2623 29.9848 11.8474 29.9848 8.86836L27.2878 8.86836ZM29.9848 8.86836C29.9848 5.88937 27.5699 3.47442 24.5909 3.47442L24.5909 6.17139C26.0804 6.17139 27.2878 7.37887 27.2878 8.86836L29.9848 8.86836Z" fill="white"/>
<path d="M20.5454 21.0048L20.5454 19.6563C19.8007 19.6563 19.1969 20.26 19.1969 21.0048L20.5454 21.0048ZM24.5909 19.6563L20.5454 19.6563L20.5454 22.3533L24.5909 22.3533L24.5909 19.6563ZM19.1969 21.0048L19.1969 25.0502L21.8939 25.0502L21.8939 21.0048L19.1969 21.0048ZM19.1969 25.0502C19.1969 28.0292 21.6119 30.4442 24.5909 30.4442L24.5909 27.7472C23.1014 27.7472 21.8939 26.5397 21.8939 25.0502L19.1969 25.0502ZM29.9848 25.0502C29.9848 22.0713 27.5699 19.6563 24.5909 19.6563L24.5909 22.3533C26.0804 22.3533 27.2878 23.5608 27.2878 25.0502L29.9848 25.0502ZM27.2878 25.0502C27.2878 26.5397 26.0804 27.7472 24.5909 27.7472L24.5909 30.4442C27.5699 30.4442 29.9848 28.0292 29.9848 25.0502L27.2878 25.0502Z" fill="white"/>
<path d="M12.4545 12.9139L12.4545 21.0048L20.5454 21.0048L20.5454 12.9139L12.4545 12.9139Z" stroke="white" stroke-width="2.69697" stroke-linecap="round" stroke-linejoin="round"/>
<path d="M12.4545 12.9138L12.4545 14.2623C13.1992 14.2623 13.803 13.6586 13.803 12.9138L12.4545 12.9138ZM8.40904 14.2623L12.4545 14.2623L12.4545 11.5653L8.40904 11.5653L8.40904 14.2623ZM13.803 12.9138L13.803 8.86836L11.106 8.86836L11.106 12.9138L13.803 12.9138ZM13.803 8.86836C13.803 5.88937 11.388 3.47442 8.40904 3.47442L8.40904 6.17139C9.89854 6.17139 11.106 7.37887 11.106 8.86836L13.803 8.86836ZM3.0151 8.86836C3.0151 11.8474 5.43005 14.2623 8.40904 14.2623L8.40904 11.5653C6.91955 11.5653 5.71207 10.3579 5.71207 8.86836L3.0151 8.86836ZM5.71207 8.86836C5.71207 7.37887 6.91955 6.17139 8.40904 6.17139L8.40904 3.47442C5.43005 3.47442 3.0151 5.88937 3.0151 8.86836L5.71207 8.86836Z" fill="white"/>
<path d="M12.4545 21.0048L13.803 21.0048C13.803 20.26 13.1992 19.6563 12.4545 19.6563L12.4545 21.0048ZM8.40904 22.3533L12.4545 22.3533L12.4545 19.6563L8.40904 19.6563L8.40904 22.3533ZM11.106 21.0048L11.106 25.0502L13.803 25.0502L13.803 21.0048L11.106 21.0048ZM11.106 25.0502C11.106 26.5397 9.89854 27.7472 8.40904 27.7472L8.40904 30.4442C11.388 30.4442 13.803 28.0292 13.803 25.0502L11.106 25.0502ZM5.71207 25.0502C5.71207 23.5608 6.91955 22.3533 8.40904 22.3533L8.40904 19.6563C5.43005 19.6563 3.0151 22.0713 3.0151 25.0502L5.71207 25.0502ZM3.0151 25.0502C3.0151 28.0292 5.43005 30.4442 8.40904 30.4442L8.40904 27.7472C6.91955 27.7472 5.71207 26.5397 5.71207 25.0502L3.0151 25.0502Z" fill="white"/>
</svg>
