<svg width="42" height="42" viewBox="0 0 42 42" fill="none" xmlns="http://www.w3.org/2000/svg">
<g clip-path="url(#clip0_1_1168)">
<path d="M15.2655 23.6915L8.85493 18.3991C8.40252 18.0256 8.59568 17.2935 9.17347 17.1918L17.3606 15.751C17.5961 15.7096 17.7931 15.5488 17.8809 15.3264L20.9334 7.59412C21.1488 7.04844 21.9047 7.00592 22.18 7.52401L26.0802 14.8652C26.1924 15.0763 26.4062 15.214 26.6449 15.2288L34.9419 15.7425C35.5275 15.7787 35.8015 16.4845 35.3938 16.9064L29.6172 22.8843C29.4511 23.0563 29.3862 23.3022 29.4459 23.5337L31.5213 31.5834C31.6677 32.1515 31.0812 32.6302 30.554 32.3729L23.0835 28.7262C22.8687 28.6213 22.6148 28.6356 22.413 28.7639L15.3986 33.2253C14.9036 33.5401 14.267 33.1302 14.3489 32.5493L15.5086 24.3176C15.5419 24.0808 15.4499 23.8438 15.2655 23.6915Z" stroke="white" stroke-width="2.7" stroke-linecap="round" stroke-linejoin="round"/>
</g>
<defs>
<clipPath id="clip0_1_1168">
<rect width="33" height="33" fill="white" transform="matrix(-0.255121 0.966909 0.966909 0.255121 9.25586 0.794922)"/>
</clipPath>
</defs>
</svg>
