<svg width="34" height="33" viewBox="0 0 34 33" fill="none" xmlns="http://www.w3.org/2000/svg">
<path d="M23.8185 27.3684C23.8185 26.6153 24.429 26.0048 25.1821 26.0048C25.9352 26.0048 26.5458 26.6153 26.5458 27.3684C26.5458 28.1215 25.9352 28.732 25.1821 28.732C24.429 28.732 23.8185 28.1215 23.8185 27.3684Z" stroke="white" stroke-width="2.72727" stroke-linecap="round" stroke-linejoin="round"/>
<path d="M10.1821 27.3684C10.1821 26.6153 10.7926 26.0048 11.5458 26.0048C12.2989 26.0048 12.9094 26.6153 12.9094 27.3684C12.9094 28.1215 12.2989 28.732 11.5458 28.732C10.7926 28.732 10.1821 28.1215 10.1821 27.3684Z" stroke="white" stroke-width="2.72727" stroke-linecap="round" stroke-linejoin="round"/>
<path d="M4.72766 4.18665H5.77455C6.43218 4.18665 6.99613 4.65601 7.11552 5.30272L10.1822 21.9139" stroke="white" stroke-width="2.72727" stroke-linecap="round" stroke-linejoin="round"/>
<path d="M8.13672 8.27747H27.5589C28.4359 8.27747 29.0848 9.09325 28.8876 9.94773L26.3702 20.8568C26.2274 21.4755 25.6764 21.9138 25.0414 21.9138H10.1822" stroke="white" stroke-width="2.72727" stroke-linecap="round" stroke-linejoin="round"/>
</svg>
