<svg width="29" height="46" viewBox="0 0 29 46" fill="none" xmlns="http://www.w3.org/2000/svg">
<path d="M4.17297 19.2707L2.82584 19.2707V19.2707H4.17297ZM19.2807 37.7039L17.9338 37.6757L19.2807 37.7039ZM8.71119 28.3389L7.903 29.4167L8.71119 28.3389ZM10.108 30.0049L8.86301 30.5194L10.108 30.0049ZM9.68255 29.1514L8.61801 29.9769L9.68255 29.1514ZM11.7198 37.7039L10.373 37.732L11.7198 37.7039ZM20.8925 30.0049L19.6474 29.4905L20.8925 30.0049ZM21.3179 29.1514L22.3825 29.9769L21.3179 29.1514ZM25.4804 19.2708C25.4804 22.5379 23.9119 25.4383 21.4811 27.2611L23.0975 29.4167C26.1776 27.107 28.1747 23.4219 28.1747 19.2708H25.4804ZM15.5002 9.29062C21.0121 9.29062 25.4804 13.7589 25.4804 19.2708H28.1747C28.1747 12.2709 22.5001 6.59635 15.5002 6.59635V9.29062ZM5.52011 19.2707C5.52012 13.7589 9.98837 9.29062 15.5002 9.29062V6.59635C8.50037 6.59635 2.82585 12.2709 2.82584 19.2707L5.52011 19.2707ZM5.52011 19.2708C5.52011 19.2708 5.52011 19.2708 5.52011 19.2708C5.52011 19.2708 5.52011 19.2708 5.52011 19.2708C5.52011 19.2708 5.52011 19.2708 5.52011 19.2708C5.52011 19.2708 5.52011 19.2708 5.52011 19.2708C5.52011 19.2708 5.52011 19.2708 5.52011 19.2708C5.52011 19.2708 5.52011 19.2708 5.52011 19.2708C5.52011 19.2708 5.52011 19.2708 5.52011 19.2708C5.52011 19.2708 5.52011 19.2708 5.52011 19.2708C5.52011 19.2708 5.52011 19.2708 5.52011 19.2708C5.52011 19.2708 5.52011 19.2708 5.52011 19.2708C5.52011 19.2708 5.52011 19.2708 5.52011 19.2708C5.52011 19.2708 5.52011 19.2708 5.52011 19.2708C5.52011 19.2708 5.52011 19.2708 5.52011 19.2708C5.52011 19.2708 5.52011 19.2708 5.52011 19.2708C5.52011 19.2708 5.52011 19.2708 5.52011 19.2708C5.52011 19.2708 5.52011 19.2708 5.52011 19.2708C5.52011 19.2708 5.52011 19.2708 5.52011 19.2708C5.52011 19.2708 5.52011 19.2708 5.52011 19.2708C5.52011 19.2708 5.52011 19.2708 5.52011 19.2708C5.52011 19.2708 5.52011 19.2708 5.52011 19.2708C5.52011 19.2708 5.52011 19.2708 5.52011 19.2708C5.52011 19.2708 5.52011 19.2708 5.52011 19.2708C5.52011 19.2708 5.52011 19.2708 5.52011 19.2708C5.52011 19.2708 5.52011 19.2708 5.52011 19.2708C5.52011 19.2708 5.52011 19.2708 5.52011 19.2708C5.52011 19.2708 5.52011 19.2708 5.52011 19.2708C5.52011 19.2708 5.52011 19.2708 5.52011 19.2708C5.52011 19.2708 5.52011 19.2708 5.52011 19.2708C5.52011 19.2708 5.52011 19.2708 5.52011 19.2708C5.52011 19.2708 5.52011 19.2708 5.52011 19.2708C5.52011 19.2708 5.52011 19.2708 5.52011 19.2708C5.52011 19.2708 5.52011 19.2708 5.52011 19.2708C5.52011 19.2708 5.52011 19.2708 5.52011 19.2708C5.52011 19.2708 5.52011 19.2708 5.52011 19.2708C5.52011 19.2708 5.52011 19.2708 5.52011 19.2708C5.52011 19.2708 5.52011 19.2708 5.52011 19.2708C5.52011 19.2708 5.52011 19.2708 5.52011 19.2708C5.52011 19.2708 5.52011 19.2708 5.52011 19.2708C5.52011 19.2708 5.52011 19.2708 5.52011 19.2708C5.52011 19.2708 5.52011 19.2708 5.52011 19.2708C5.52011 19.2708 5.52011 19.2708 5.52011 19.2708C5.52011 19.2708 5.52011 19.2708 5.52011 19.2708C5.52011 19.2708 5.52011 19.2708 5.52011 19.2708C5.52011 19.2708 5.52011 19.2708 5.52011 19.2708C5.52011 19.2708 5.52011 19.2708 5.52011 19.2708C5.52011 19.2708 5.52011 19.2708 5.52011 19.2708C5.52011 19.2708 5.52011 19.2708 5.52011 19.2708C5.52011 19.2708 5.52011 19.2708 5.52011 19.2708C5.52011 19.2708 5.52011 19.2708 5.52011 19.2708C5.52011 19.2708 5.52011 19.2708 5.52011 19.2708C5.52011 19.2708 5.52011 19.2708 5.52011 19.2708C5.52011 19.2708 5.52011 19.2708 5.52011 19.2708C5.52011 19.2708 5.52011 19.2708 5.52011 19.2708C5.52011 19.2708 5.52011 19.2708 5.52011 19.2708C5.52011 19.2708 5.52011 19.2708 5.52011 19.2708C5.52011 19.2708 5.52011 19.2708 5.52011 19.2708C5.52011 19.2708 5.52011 19.2708 5.52011 19.2708C5.52011 19.2708 5.52011 19.2708 5.52011 19.2708C5.52011 19.2708 5.52011 19.2708 5.52011 19.2708C5.52011 19.2708 5.52011 19.2708 5.52011 19.2708C5.52011 19.2708 5.52011 19.2708 5.52011 19.2708C5.52011 19.2708 5.52011 19.2708 5.52011 19.2708C5.52011 19.2708 5.52011 19.2708 5.52011 19.2708C5.52011 19.2708 5.52011 19.2708 5.52011 19.2708C5.52011 19.2708 5.52011 19.2708 5.52011 19.2708C5.52011 19.2708 5.52011 19.2708 5.52011 19.2708C5.52011 19.2708 5.52011 19.2708 5.52011 19.2708C5.52011 19.2708 5.52011 19.2708 5.52011 19.2708C5.52011 19.2708 5.52011 19.2708 5.52011 19.2708C5.52011 19.2708 5.52011 19.2708 5.52011 19.2708C5.52011 19.2708 5.52011 19.2708 5.52011 19.2708C5.52011 19.2708 5.52011 19.2708 5.52011 19.2708C5.52011 19.2708 5.52011 19.2708 5.52011 19.2708C5.52011 19.2708 5.52011 19.2708 5.52011 19.2708C5.52011 19.2708 5.52011 19.2708 5.52011 19.2708C5.52011 19.2708 5.52011 19.2708 5.52011 19.2708C5.52011 19.2708 5.52011 19.2708 5.52011 19.2708C5.52011 19.2708 5.52011 19.2708 5.52011 19.2708C5.52011 19.2708 5.52011 19.2708 5.52011 19.2708C5.52011 19.2708 5.52011 19.2708 5.52011 19.2708C5.52011 19.2708 5.52011 19.2708 5.52011 19.2708C5.52011 19.2708 5.52011 19.2708 5.52011 19.2708C5.52011 19.2708 5.52011 19.2708 5.52011 19.2708C5.52011 19.2708 5.52011 19.2708 5.52011 19.2708C5.52011 19.2708 5.52011 19.2708 5.52011 19.2708C5.52011 19.2708 5.52011 19.2708 5.52011 19.2708C5.52011 19.2708 5.52011 19.2708 5.52011 19.2708C5.52011 19.2708 5.52011 19.2708 5.52011 19.2708C5.52011 19.2708 5.52011 19.2708 5.52011 19.2708C5.52011 19.2708 5.52011 19.2708 5.52011 19.2708C5.52011 19.2708 5.52011 19.2708 5.52011 19.2708C5.52011 19.2708 5.52011 19.2708 5.52011 19.2708C5.52011 19.2708 5.52011 19.2708 5.52011 19.2708C5.52011 19.2708 5.52011 19.2708 5.52011 19.2708C5.52011 19.2708 5.52011 19.2708 5.52011 19.2708C5.52011 19.2708 5.52011 19.2708 5.52011 19.2708C5.52011 19.2708 5.52011 19.2708 5.52011 19.2708C5.52011 19.2708 5.52011 19.2708 5.52011 19.2708C5.52011 19.2708 5.52011 19.2708 5.52011 19.2708C5.52011 19.2708 5.52011 19.2708 5.52011 19.2708C5.52011 19.2708 5.52011 19.2708 5.52011 19.2708C5.52011 19.2708 5.52011 19.2708 5.52011 19.2708C5.52011 19.2708 5.52011 19.2708 5.52011 19.2708C5.52011 19.2708 5.52011 19.2708 5.52011 19.2708C5.52011 19.2708 5.52011 19.2708 5.52011 19.2708C5.52011 19.2708 5.52011 19.2708 5.52011 19.2708C5.52011 19.2708 5.52011 19.2708 5.52011 19.2708C5.52011 19.2708 5.52011 19.2708 5.52011 19.2708C5.52011 19.2708 5.52011 19.2708 5.52011 19.2708C5.52011 19.2708 5.52011 19.2708 5.52011 19.2708C5.52011 19.2708 5.52011 19.2708 5.52011 19.2708C5.52011 19.2708 5.52011 19.2708 5.52011 19.2708C5.52011 19.2708 5.52011 19.2708 5.52011 19.2708C5.52011 19.2708 5.52011 19.2708 5.52011 19.2708C5.52011 19.2708 5.52011 19.2708 5.52011 19.2708C5.52011 19.2708 5.52011 19.2708 5.52011 19.2708C5.52011 19.2708 5.52011 19.2708 5.52011 19.2708C5.52011 19.2708 5.52011 19.2708 5.52011 19.2708C5.52011 19.2708 5.52011 19.2708 5.52011 19.2708C5.52011 19.2708 5.52011 19.2708 5.52011 19.2708C5.52011 19.2708 5.52011 19.2708 5.52011 19.2708C5.52011 19.2708 5.52011 19.2708 5.52011 19.2708C5.52011 19.2708 5.52011 19.2708 5.52011 19.2708C5.52011 19.2708 5.52011 19.2708 5.52011 19.2708C5.52011 19.2708 5.52011 19.2708 5.52011 19.2708C5.52011 19.2708 5.52011 19.2708 5.52011 19.2708C5.52011 19.2708 5.52011 19.2708 5.52011 19.2708C5.52011 19.2708 5.52011 19.2708 5.52011 19.2708C5.52011 19.2708 5.52011 19.2708 5.52011 19.2708C5.52011 19.2708 5.52011 19.2708 5.52011 19.2708C5.52011 19.2708 5.52011 19.2708 5.52011 19.2708C5.52011 19.2708 5.52011 19.2708 5.52011 19.2708C5.52011 19.2708 5.52011 19.2708 5.52011 19.2708C5.52011 19.2708 5.52011 19.2708 5.52011 19.2708C5.52011 19.2708 5.52011 19.2708 5.52011 19.2708C5.52011 19.2708 5.52011 19.2708 5.52011 19.2708C5.52011 19.2708 5.52011 19.2708 5.52011 19.2708C5.52011 19.2708 5.52011 19.2708 5.52011 19.2708C5.52011 19.2708 5.52011 19.2708 5.52011 19.2708C5.52011 19.2708 5.52011 19.2708 5.52011 19.2708C5.52011 19.2708 5.52011 19.2708 5.52011 19.2708C5.52011 19.2708 5.52011 19.2708 5.52011 19.2708C5.52011 19.2708 5.52011 19.2708 5.52011 19.2708C5.52011 19.2708 5.52011 19.2708 5.52011 19.2708C5.52011 19.2708 5.52011 19.2708 5.52011 19.2707C5.52011 19.2707 5.52011 19.2707 5.52011 19.2707C5.52011 19.2707 5.52011 19.2707 5.52011 19.2707C5.52011 19.2707 5.52011 19.2707 5.52011 19.2707C5.52011 19.2707 5.52011 19.2707 5.52011 19.2707C5.52011 19.2707 5.52011 19.2707 5.52011 19.2707C5.52011 19.2707 5.52011 19.2707 5.52011 19.2707C5.52011 19.2707 5.52011 19.2707 5.52011 19.2707C5.52011 19.2707 5.52011 19.2707 5.52011 19.2707C5.52011 19.2707 5.52011 19.2707 5.52011 19.2707C5.52011 19.2707 5.52011 19.2707 5.52011 19.2707C5.52011 19.2707 5.52011 19.2707 5.52011 19.2707C5.52011 19.2707 5.52011 19.2707 5.52011 19.2707C5.52011 19.2707 5.52011 19.2707 5.52011 19.2707C5.52011 19.2707 5.52011 19.2707 5.52011 19.2707C5.52011 19.2707 5.52011 19.2707 5.52011 19.2707C5.52011 19.2707 5.52011 19.2707 5.52011 19.2707C5.52011 19.2707 5.52011 19.2707 5.52011 19.2707C5.52011 19.2707 5.52011 19.2707 5.52011 19.2707C5.52011 19.2707 5.52011 19.2707 5.52011 19.2707C5.52011 19.2707 5.52011 19.2707 5.52011 19.2707C5.52011 19.2707 5.52011 19.2707 5.52011 19.2707C5.52011 19.2707 5.52011 19.2707 5.52011 19.2707C5.52011 19.2707 5.52011 19.2707 5.52011 19.2707C5.52011 19.2707 5.52011 19.2707 5.52011 19.2707C5.52011 19.2707 5.52011 19.2707 5.52011 19.2707C5.52011 19.2707 5.52011 19.2707 5.52011 19.2707C5.52011 19.2707 5.52011 19.2707 5.52011 19.2707C5.52011 19.2707 5.52011 19.2707 5.52011 19.2707C5.52011 19.2707 5.52011 19.2707 5.52011 19.2707C5.52011 19.2707 5.52011 19.2707 5.52011 19.2707C5.52011 19.2707 5.52011 19.2707 5.52011 19.2707C5.52011 19.2707 5.52011 19.2707 5.52011 19.2707C5.52011 19.2707 5.52011 19.2707 5.52011 19.2707C5.52011 19.2707 5.52011 19.2707 5.52011 19.2707C5.52011 19.2707 5.52011 19.2707 5.52011 19.2707C5.52011 19.2707 5.52011 19.2707 5.52011 19.2707C5.52011 19.2707 5.52011 19.2707 5.52011 19.2707C5.52011 19.2707 5.52011 19.2707 5.52011 19.2707C5.52011 19.2707 5.52011 19.2707 5.52011 19.2707C5.52011 19.2707 5.52011 19.2707 5.52011 19.2707C5.52011 19.2707 5.52011 19.2707 5.52011 19.2707C5.52011 19.2707 5.52011 19.2707 5.52011 19.2707C5.52011 19.2707 5.52011 19.2707 5.52011 19.2707C5.52011 19.2707 5.52011 19.2707 5.52011 19.2707C5.52011 19.2707 5.52011 19.2707 5.52011 19.2707C5.52011 19.2707 5.52011 19.2707 5.52011 19.2707C5.52011 19.2707 5.52011 19.2707 5.52011 19.2707C5.52011 19.2707 5.52011 19.2707 5.52011 19.2707C5.52011 19.2707 5.52011 19.2707 5.52011 19.2707C5.52011 19.2707 5.52011 19.2707 5.52011 19.2707C5.52011 19.2707 5.52011 19.2707 5.52011 19.2707C5.52011 19.2707 5.52011 19.2707 5.52011 19.2707C5.52011 19.2707 5.52011 19.2707 5.52011 19.2707C5.52011 19.2707 5.52011 19.2707 5.52011 19.2707C5.52011 19.2707 5.52011 19.2707 5.52011 19.2707C5.52011 19.2707 5.52011 19.2707 5.52011 19.2707C5.52011 19.2707 5.52011 19.2707 5.52011 19.2707C5.52011 19.2707 5.52011 19.2707 5.52011 19.2707C5.52011 19.2707 5.52011 19.2707 5.52011 19.2707C5.52011 19.2707 5.52011 19.2707 5.52011 19.2707C5.52011 19.2707 5.52011 19.2707 5.52011 19.2707C5.52011 19.2707 5.52011 19.2707 5.52011 19.2707C5.52011 19.2707 5.52011 19.2707 5.52011 19.2707C5.52011 19.2707 5.52011 19.2707 5.52011 19.2707C5.52011 19.2707 5.52011 19.2707 5.52011 19.2707C5.52011 19.2707 5.52011 19.2707 5.52011 19.2707C5.52011 19.2707 5.52011 19.2707 5.52011 19.2707C5.52011 19.2707 5.52011 19.2707 5.52011 19.2707C5.52011 19.2707 5.52011 19.2707 5.52011 19.2707C5.52011 19.2707 5.52011 19.2707 5.52011 19.2707C5.52011 19.2707 5.52011 19.2707 5.52011 19.2707C5.52011 19.2707 5.52011 19.2707 5.52011 19.2707C5.52011 19.2707 5.52011 19.2707 5.52011 19.2707C5.52011 19.2707 5.52011 19.2707 5.52011 19.2707C5.52011 19.2707 5.52011 19.2707 5.52011 19.2707C5.52011 19.2707 5.52011 19.2707 5.52011 19.2707C5.52011 19.2707 5.52011 19.2707 5.52011 19.2707C5.52011 19.2707 5.52011 19.2707 5.52011 19.2707C5.52011 19.2707 5.52011 19.2707 5.52011 19.2707C5.52011 19.2707 5.52011 19.2707 5.52011 19.2707C5.52011 19.2707 5.52011 19.2707 5.52011 19.2707C5.52011 19.2707 5.52011 19.2707 5.52011 19.2707C5.52011 19.2707 5.52011 19.2707 5.52011 19.2707C5.52011 19.2707 5.52011 19.2707 5.52011 19.2707C5.52011 19.2707 5.52011 19.2707 5.52011 19.2707C5.52011 19.2707 5.52011 19.2707 5.52011 19.2707C5.52011 19.2707 5.52011 19.2707 5.52011 19.2707C5.52011 19.2707 5.52011 19.2707 5.52011 19.2707C5.52011 19.2707 5.52011 19.2707 5.52011 19.2707C5.52011 19.2707 5.52011 19.2707 5.52011 19.2707C5.52011 19.2707 5.52011 19.2707 5.52011 19.2707C5.52011 19.2707 5.52011 19.2707 5.52011 19.2707C5.52011 19.2707 5.52011 19.2707 5.52011 19.2707C5.52011 19.2707 5.52011 19.2707 5.52011 19.2707C5.52011 19.2707 5.52011 19.2707 5.52011 19.2707C5.52011 19.2707 5.52011 19.2707 5.52011 19.2707C5.52011 19.2707 5.52011 19.2707 5.52011 19.2707C5.52011 19.2707 5.52011 19.2707 5.52011 19.2707C5.52011 19.2707 5.52011 19.2707 5.52011 19.2707C5.52011 19.2707 5.52011 19.2707 5.52011 19.2707C5.52011 19.2707 5.52011 19.2707 5.52011 19.2707C5.52011 19.2707 5.52011 19.2707 5.52011 19.2707C5.52011 19.2707 5.52011 19.2707 5.52011 19.2707C5.52011 19.2707 5.52011 19.2707 5.52011 19.2707C5.52011 19.2707 5.52011 19.2707 5.52011 19.2707C5.52011 19.2707 5.52011 19.2707 5.52011 19.2707C5.52011 19.2707 5.52011 19.2707 5.52011 19.2707C5.52011 19.2707 5.52011 19.2707 5.52011 19.2707C5.52011 19.2707 5.52011 19.2707 5.52011 19.2707C5.52011 19.2707 5.52011 19.2707 5.52011 19.2707C5.52011 19.2707 5.52011 19.2707 5.52011 19.2707C5.52011 19.2707 5.52011 19.2707 5.52011 19.2707C5.52011 19.2707 5.52011 19.2707 5.52011 19.2707C5.52011 19.2707 5.52011 19.2707 5.52011 19.2707C5.52011 19.2707 5.52011 19.2707 5.52011 19.2707C5.52011 19.2707 5.52011 19.2707 5.52011 19.2707C5.52011 19.2707 5.52011 19.2707 5.52011 19.2707C5.52011 19.2707 5.52011 19.2707 5.52011 19.2707C5.52011 19.2707 5.52011 19.2707 5.52011 19.2707C5.52011 19.2707 5.52011 19.2707 5.52011 19.2707C5.52011 19.2707 5.52011 19.2707 5.52011 19.2707C5.52011 19.2707 5.52011 19.2707 5.52011 19.2707C5.52011 19.2707 5.52011 19.2707 5.52011 19.2707C5.52011 19.2707 5.52011 19.2707 5.52011 19.2707C5.52011 19.2707 5.52011 19.2707 5.52011 19.2707C5.52011 19.2707 5.52011 19.2707 5.52011 19.2707C5.52011 19.2707 5.52011 19.2707 5.52011 19.2707C5.52011 19.2707 5.52011 19.2707 5.52011 19.2707C5.52011 19.2707 5.52011 19.2707 5.52011 19.2707C5.52011 19.2707 5.52011 19.2707 5.52011 19.2707C5.52011 19.2707 5.52011 19.2707 5.52011 19.2707C5.52011 19.2707 5.52011 19.2707 5.52011 19.2707C5.52011 19.2707 5.52011 19.2707 5.52011 19.2707C5.52011 19.2707 5.52011 19.2707 5.52011 19.2707C5.52011 19.2707 5.52011 19.2707 5.52011 19.2707C5.52011 19.2707 5.52011 19.2707 5.52011 19.2707C5.52011 19.2707 5.52011 19.2707 5.52011 19.2707C5.52011 19.2707 5.52011 19.2707 5.52011 19.2707C5.52011 19.2707 5.52011 19.2707 5.52011 19.2707C5.52011 19.2707 5.52011 19.2707 5.52011 19.2707C5.52011 19.2707 5.52011 19.2707 5.52011 19.2707C5.52011 19.2707 5.52011 19.2707 5.52011 19.2707C5.52011 19.2707 5.52011 19.2707 5.52011 19.2707C5.52011 19.2707 5.52011 19.2707 5.52011 19.2707C5.52011 19.2707 5.52011 19.2707 5.52011 19.2707C5.52011 19.2707 5.52011 19.2707 5.52011 19.2707C5.52011 19.2707 5.52011 19.2707 5.52011 19.2707C5.52011 19.2707 5.52011 19.2707 5.52011 19.2707C5.52011 19.2707 5.52011 19.2707 5.52011 19.2707C5.52011 19.2707 5.52011 19.2707 5.52011 19.2707C5.52011 19.2707 5.52011 19.2707 5.52011 19.2707C5.52011 19.2707 5.52011 19.2707 5.52011 19.2707C5.52011 19.2707 5.52011 19.2707 5.52011 19.2707C5.52011 19.2707 5.52011 19.2707 5.52011 19.2707C5.52011 19.2707 5.52011 19.2707 5.52011 19.2707C5.52011 19.2707 5.52011 19.2707 5.52011 19.2707C5.52011 19.2707 5.52011 19.2707 5.52011 19.2707C5.52011 19.2707 5.52011 19.2707 5.52011 19.2707C5.52011 19.2707 5.52011 19.2707 5.52011 19.2707C5.52011 19.2707 5.52011 19.2707 5.52011 19.2707C5.52011 19.2707 5.52011 19.2707 5.52011 19.2707C5.52011 19.2707 5.52011 19.2707 5.52011 19.2707C5.52011 19.2707 5.52011 19.2707 5.52011 19.2707C5.52011 19.2707 5.52011 19.2707 5.52011 19.2707C5.52011 19.2707 5.52011 19.2707 5.52011 19.2707C5.52011 19.2707 5.52011 19.2707 5.52011 19.2707C5.52011 19.2707 5.52011 19.2707 5.52011 19.2707C5.52011 19.2707 5.52011 19.2707 5.52011 19.2707C5.52011 19.2707 5.52011 19.2707 5.52011 19.2707C5.52011 19.2707 5.52011 19.2707 5.52011 19.2707C5.52011 19.2707 5.52011 19.2707 5.52011 19.2707C5.52011 19.2707 5.52011 19.2707 5.52011 19.2707C5.52011 19.2707 5.52011 19.2707 5.52011 19.2707C5.52011 19.2707 5.52011 19.2707 5.52011 19.2707C5.52011 19.2707 5.52011 19.2707 5.52011 19.2707C5.52011 19.2707 5.52011 19.2707 5.52011 19.2707C5.52011 19.2707 5.52011 19.2707 5.52011 19.2707C5.52011 19.2707 5.52011 19.2707 5.52011 19.2707C5.52011 19.2707 5.52011 19.2707 5.52011 19.2707C5.52011 19.2707 5.52011 19.2707 5.52011 19.2707C5.52011 19.2707 5.52011 19.2707 5.52011 19.2707C5.52011 19.2707 5.52011 19.2707 5.52011 19.2707C5.52011 19.2707 5.52011 19.2707 5.52011 19.2707C5.52011 19.2707 5.52011 19.2707 5.52011 19.2707C5.52011 19.2707 5.52011 19.2707 5.52011 19.2707C5.52011 19.2707 5.52011 19.2707 5.52011 19.2707C5.52011 19.2707 5.52011 19.2707 5.52011 19.2707C5.52011 19.2707 5.52011 19.2707 5.52011 19.2707C5.52011 19.2707 5.52011 19.2707 5.52011 19.2707C5.52011 19.2707 5.52011 19.2707 5.52011 19.2707C5.52011 19.2707 5.52011 19.2707 5.52011 19.2707C5.52011 19.2707 5.52011 19.2707 5.52011 19.2707C5.52011 19.2707 5.52011 19.2707 5.52011 19.2707C5.52011 19.2707 5.52011 19.2707 5.52011 19.2707C5.52011 19.2707 5.52011 19.2707 5.52011 19.2707C5.52011 19.2707 5.52011 19.2707 5.52011 19.2707C5.52011 19.2707 5.52011 19.2707 5.52011 19.2707C5.52011 19.2707 5.52011 19.2707 5.52011 19.2707C5.52011 19.2707 5.52011 19.2707 5.52011 19.2707C5.52011 19.2707 5.52011 19.2707 5.52011 19.2707C5.52011 19.2707 5.52011 19.2707 5.52011 19.2707C5.52011 19.2707 5.52011 19.2707 5.52011 19.2707C5.52011 19.2707 5.52011 19.2707 5.52011 19.2707C5.52011 19.2707 5.52011 19.2707 5.52011 19.2707C5.52011 19.2707 5.52011 19.2707 5.52011 19.2707C5.52011 19.2707 5.52011 19.2707 5.52011 19.2707C5.52011 19.2707 5.52011 19.2707 5.52011 19.2707C5.52011 19.2707 5.52011 19.2707 5.52011 19.2707C5.52011 19.2707 5.52011 19.2707 5.52011 19.2707C5.52011 19.2707 5.52011 19.2707 5.52011 19.2707C5.52011 19.2707 5.52011 19.2707 5.52011 19.2707C5.52011 19.2707 5.52011 19.2707 5.52011 19.2707C5.52011 19.2707 5.52011 19.2707 5.52011 19.2707C5.52011 19.2707 5.52011 19.2707 5.52011 19.2707C5.52011 19.2707 5.52011 19.2707 5.52011 19.2707C5.52011 19.2707 5.52011 19.2707 5.52011 19.2707C5.52011 19.2707 5.52011 19.2707 5.52011 19.2707C5.52011 19.2707 5.52011 19.2707 5.52011 19.2707C5.52011 19.2707 5.52011 19.2707 5.52011 19.2707C5.52011 19.2707 5.52011 19.2707 5.52011 19.2707C5.52011 19.2707 5.52011 19.2707 5.52011 19.2707C5.52011 19.2707 5.52011 19.2707 5.52011 19.2707C5.52011 19.2707 5.52011 19.2707 5.52011 19.2707C5.52011 19.2707 5.52011 19.2707 5.52011 19.2707C5.52011 19.2707 5.52011 19.2707 5.52011 19.2707C5.52011 19.2707 5.52011 19.2707 5.52011 19.2707C5.52011 19.2707 5.52011 19.2707 5.52011 19.2707C5.52011 19.2707 5.52011 19.2707 5.52011 19.2707C5.52011 19.2707 5.52011 19.2707 5.52011 19.2707C5.52011 19.2707 5.52011 19.2707 5.52011 19.2707C5.52011 19.2707 5.52011 19.2707 5.52011 19.2707C5.52011 19.2707 5.52011 19.2707 5.52011 19.2707C5.52011 19.2707 5.52011 19.2707 5.52011 19.2707C5.52011 19.2707 5.52011 19.2707 5.52011 19.2707C5.52011 19.2707 5.52011 19.2707 5.52011 19.2707C5.52011 19.2707 5.52011 19.2707 5.52011 19.2707C5.52011 19.2707 5.52011 19.2707 5.52011 19.2707C5.52011 19.2707 5.52011 19.2707 5.52011 19.2707C5.52011 19.2707 5.52011 19.2707 5.52011 19.2707C5.52011 19.2707 5.52011 19.2707 5.52011 19.2707C5.52011 19.2707 5.52011 19.2707 5.52011 19.2707C5.52011 19.2707 5.52011 19.2707 5.52011 19.2707C5.52011 19.2707 5.52011 19.2707 5.52011 19.2707C5.52011 19.2707 5.52011 19.2707 5.52011 19.2707C5.52011 19.2707 5.52011 19.2707 5.52011 19.2707C5.52011 19.2707 5.52011 19.2707 5.52011 19.2707C5.52011 19.2707 5.52011 19.2707 5.52011 19.2707C5.52011 19.2707 5.52011 19.2707 5.52011 19.2707C5.52011 19.2707 5.52011 19.2707 5.52011 19.2707C5.52011 19.2707 5.52011 19.2707 5.52011 19.2707C5.52011 19.2707 5.52011 19.2707 5.52011 19.2707C5.52011 19.2707 5.52011 19.2707 5.52011 19.2707C5.52011 19.2707 5.52011 19.2707 5.52011 19.2707C5.52011 19.2707 5.52011 19.2707 5.52011 19.2707C5.52011 19.2707 5.52011 19.2707 5.52011 19.2707C5.52011 19.2707 5.52011 19.2707 5.52011 19.2707C5.52011 19.2707 5.52011 19.2707 5.52011 19.2707C5.52011 19.2707 5.52011 19.2707 5.52011 19.2707C5.52011 19.2707 5.52011 19.2707 5.52011 19.2707C5.52011 19.2707 5.52011 19.2707 5.52011 19.2707C5.52011 19.2707 5.52011 19.2707 5.52011 19.2707C5.52011 19.2707 5.52011 19.2707 5.52011 19.2707C5.52011 19.2707 5.52011 19.2707 5.52011 19.2707C5.52011 19.2707 5.52011 19.2707 5.52011 19.2707C5.52011 19.2707 5.52011 19.2707 5.52011 19.2707C5.52011 19.2707 5.52011 19.2707 5.52011 19.2707C5.52011 19.2707 5.52011 19.2707 5.52011 19.2707C5.52011 19.2707 5.52011 19.2707 5.52011 19.2707C5.52011 19.2707 5.52011 19.2707 5.52011 19.2707C5.52011 19.2707 5.52011 19.2707 5.52011 19.2707C5.52011 19.2707 5.52011 19.2707 5.52011 19.2707C5.52011 19.2707 5.52011 19.2707 5.52011 19.2707C5.52011 19.2707 5.52011 19.2707 5.52011 19.2707C5.52011 19.2707 5.52011 19.2707 5.52011 19.2707C5.52011 19.2707 5.52011 19.2707 5.52011 19.2707C5.52011 19.2707 5.52011 19.2707 5.52011 19.2707C5.52011 19.2707 5.52011 19.2707 5.52011 19.2707C5.52011 19.2707 5.52011 19.2707 5.52011 19.2707C5.52011 19.2707 5.52011 19.2707 5.52011 19.2707C5.52011 19.2707 5.52011 19.2707 5.52011 19.2707C5.52011 19.2707 5.52011 19.2707 5.52011 19.2707C5.52011 19.2707 5.52011 19.2707 5.52011 19.2707C5.52011 19.2707 5.52011 19.2707 5.52011 19.2707C5.52011 19.2707 5.52011 19.2707 5.52011 19.2707C5.52011 19.2707 5.52011 19.2707 5.52011 19.2707C5.52011 19.2707 5.52011 19.2707 5.52011 19.2707C5.52011 19.2707 5.52011 19.2707 5.52011 19.2707C5.52011 19.2707 5.52011 19.2707 5.52011 19.2707C5.52011 19.2707 5.52011 19.2707 5.52011 19.2707C5.52011 19.2707 5.52011 19.2707 5.52011 19.2707C5.52011 19.2707 5.52011 19.2707 5.52011 19.2707C5.52011 19.2707 5.52011 19.2707 5.52011 19.2707C5.52011 19.2707 5.52011 19.2707 5.52011 19.2707C5.52011 19.2707 5.52011 19.2707 5.52011 19.2707C5.52011 19.2707 5.52011 19.2707 5.52011 19.2707C5.52011 19.2707 5.52011 19.2707 5.52011 19.2707C5.52011 19.2707 5.52011 19.2707 5.52011 19.2707C5.52011 19.2707 5.52011 19.2707 5.52011 19.2707C5.52011 19.2707 5.52011 19.2707 5.52011 19.2707C5.52011 19.2707 5.52011 19.2707 5.52011 19.2707C5.52011 19.2707 5.52011 19.2707 5.52011 19.2707C5.52011 19.2707 5.52011 19.2707 5.52011 19.2707C5.52011 19.2707 5.52011 19.2707 5.52011 19.2707C5.52011 19.2707 5.52011 19.2707 5.52011 19.2707C5.52011 19.2707 5.52011 19.2707 5.52011 19.2707C5.52011 19.2707 5.52011 19.2707 5.52011 19.2707C5.52011 19.2707 5.52011 19.2707 5.52011 19.2707C5.52011 19.2707 5.52011 19.2707 5.52011 19.2707C5.52011 19.2707 5.52011 19.2707 5.52011 19.2707C5.52011 19.2707 5.52011 19.2707 5.52011 19.2707C5.52011 19.2707 5.52011 19.2707 5.52011 19.2707C5.52011 19.2707 5.52011 19.2707 5.52011 19.2707C5.52011 19.2707 5.52011 19.2707 5.52011 19.2707C5.52011 19.2707 5.52011 19.2707 5.52011 19.2707C5.52011 19.2707 5.52011 19.2707 5.52011 19.2707C5.52011 19.2707 5.52011 19.2707 5.52011 19.2707C5.52011 19.2707 5.52011 19.2707 5.52011 19.2707C5.52011 19.2707 5.52011 19.2707 5.52011 19.2707C5.52011 19.2707 5.52011 19.2707 5.52011 19.2707C5.52011 19.2707 5.52011 19.2707 5.52011 19.2707C5.52011 19.2707 5.52011 19.2707 5.52011 19.2707C5.52011 19.2707 5.52011 19.2707 5.52011 19.2707C5.52011 19.2707 5.52011 19.2707 5.52011 19.2707C5.52011 19.2707 5.52011 19.2707 5.52011 19.2707C5.52011 19.2707 5.52011 19.2707 5.52011 19.2707C5.52011 19.2707 5.52011 19.2707 5.52011 19.2707C5.52011 19.2707 5.52011 19.2707 5.52011 19.2707C5.52011 19.2707 5.52011 19.2707 5.52011 19.2707C5.52011 19.2707 5.52011 19.2707 5.52011 19.2707C5.52011 19.2707 5.52011 19.2707 5.52011 19.2707C5.52011 19.2707 5.52011 19.2707 5.52011 19.2707C5.52011 19.2707 5.52011 19.2707 5.52011 19.2707C5.52011 19.2707 5.52011 19.2707 5.52011 19.2707C5.52011 19.2707 5.52011 19.2707 5.52011 19.2707C5.52011 19.2707 5.52011 19.2707 5.52011 19.2707C5.52011 19.2707 5.52011 19.2707 5.52011 19.2707C5.52011 19.2707 5.52011 19.2707 5.52011 19.2707C5.52011 19.2707 5.52011 19.2707 5.52011 19.2707C5.52011 19.2707 5.52011 19.2707 5.52011 19.2707C5.52011 19.2707 5.52011 19.2707 5.52011 19.2707C5.52011 19.2707 5.52011 19.2707 5.52011 19.2707C5.52011 19.2707 5.52011 19.2707 5.52011 19.2707C5.52011 19.2707 5.52011 19.2707 5.52011 19.2707C5.52011 19.2707 5.52011 19.2707 5.52011 19.2707C5.52011 19.2707 5.52011 19.2707 5.52011 19.2707C5.52011 19.2707 5.52011 19.2707 5.52011 19.2707C5.52011 19.2707 5.52011 19.2707 5.52011 19.2707C5.52011 19.2707 5.52011 19.2707 5.52011 19.2707C5.52011 19.2707 5.52011 19.2707 5.52011 19.2707C5.52011 19.2707 5.52011 19.2707 5.52011 19.2707C5.52011 19.2707 5.52011 19.2707 5.52011 19.2707C5.52011 19.2707 5.52011 19.2707 5.52011 19.2707C5.52011 19.2707 5.52011 19.2707 5.52011 19.2707C5.52011 19.2707 5.52011 19.2707 5.52011 19.2707C5.52011 19.2707 5.52011 19.2707 5.52011 19.2707C5.52011 19.2707 5.52011 19.2707 5.52011 19.2707C5.52011 19.2707 5.52011 19.2707 5.52011 19.2707C5.52011 19.2707 5.52011 19.2707 5.52011 19.2707C5.52011 19.2707 5.52011 19.2707 5.52011 19.2707C5.52011 19.2707 5.52011 19.2707 5.52011 19.2707C5.52011 19.2707 5.52011 19.2707 5.52011 19.2707C5.52011 19.2707 5.52011 19.2707 5.52011 19.2707C5.52011 19.2707 5.52011 19.2707 5.52011 19.2707C5.52011 19.2707 5.52011 19.2707 5.52011 19.2707C5.52011 19.2707 5.52011 19.2707 5.52011 19.2707C5.52011 19.2707 5.52011 19.2707 5.52011 19.2707C5.52011 19.2707 5.52011 19.2707 5.52011 19.2707H2.82584C2.82584 19.2707 2.82584 19.2707 2.82584 19.2707C2.82584 19.2707 2.82584 19.2707 2.82584 19.2707C2.82584 19.2707 2.82584 19.2707 2.82584 19.2707C2.82584 19.2707 2.82584 19.2707 2.82584 19.2707C2.82584 19.2707 2.82584 19.2707 2.82584 19.2707C2.82584 19.2707 2.82584 19.2707 2.82584 19.2707C2.82584 19.2707 2.82584 19.2707 2.82584 19.2707C2.82584 19.2707 2.82584 19.2707 2.82584 19.2707C2.82584 19.2707 2.82584 19.2707 2.82584 19.2707C2.82584 19.2707 2.82584 19.2707 2.82584 19.2707C2.82584 19.2707 2.82584 19.2707 2.82584 19.2707C2.82584 19.2707 2.82584 19.2707 2.82584 19.2707C2.82584 19.2707 2.82584 19.2707 2.82584 19.2707C2.82584 19.2707 2.82584 19.2707 2.82584 19.2707C2.82584 19.2707 2.82584 19.2707 2.82584 19.2707C2.82584 19.2707 2.82584 19.2707 2.82584 19.2707C2.82584 19.2707 2.82584 19.2707 2.82584 19.2707C2.82584 19.2707 2.82584 19.2707 2.82584 19.2707C2.82584 19.2707 2.82584 19.2707 2.82584 19.2707C2.82584 19.2707 2.82584 19.2707 2.82584 19.2707C2.82584 19.2707 2.82584 19.2707 2.82584 19.2707C2.82584 19.2707 2.82584 19.2707 2.82584 19.2707C2.82584 19.2707 2.82584 19.2707 2.82584 19.2707C2.82584 19.2707 2.82584 19.2707 2.82584 19.2707C2.82584 19.2707 2.82584 19.2707 2.82584 19.2707C2.82584 19.2707 2.82584 19.2707 2.82584 19.2707C2.82584 19.2707 2.82584 19.2707 2.82584 19.2707C2.82584 19.2707 2.82584 19.2707 2.82584 19.2707C2.82584 19.2707 2.82584 19.2707 2.82584 19.2707C2.82584 19.2707 2.82584 19.2707 2.82584 19.2707C2.82584 19.2707 2.82584 19.2707 2.82584 19.2707C2.82584 19.2707 2.82584 19.2707 2.82584 19.2707C2.82584 19.2707 2.82584 19.2707 2.82584 19.2707C2.82584 19.2707 2.82584 19.2707 2.82584 19.2707C2.82584 19.2707 2.82584 19.2707 2.82584 19.2707C2.82584 19.2707 2.82584 19.2707 2.82584 19.2707C2.82584 19.2707 2.82584 19.2707 2.82584 19.2707C2.82584 19.2707 2.82584 19.2707 2.82584 19.2707C2.82584 19.2707 2.82584 19.2707 2.82584 19.2707C2.82584 19.2707 2.82584 19.2707 2.82584 19.2707C2.82584 19.2707 2.82584 19.2707 2.82584 19.2707C2.82584 19.2707 2.82584 19.2707 2.82584 19.2707C2.82584 19.2707 2.82584 19.2707 2.82584 19.2707C2.82584 19.2707 2.82584 19.2707 2.82584 19.2707C2.82584 19.2707 2.82584 19.2707 2.82584 19.2707C2.82584 19.2707 2.82584 19.2707 2.82584 19.2707C2.82584 19.2707 2.82584 19.2707 2.82584 19.2707C2.82584 19.2707 2.82584 19.2707 2.82584 19.2707C2.82584 19.2707 2.82584 19.2707 2.82584 19.2707C2.82584 19.2707 2.82584 19.2707 2.82584 19.2707C2.82584 19.2707 2.82584 19.2707 2.82584 19.2707C2.82584 19.2707 2.82584 19.2707 2.82584 19.2707C2.82584 19.2707 2.82584 19.2707 2.82584 19.2707C2.82584 19.2707 2.82584 19.2707 2.82584 19.2707C2.82584 19.2707 2.82584 19.2707 2.82584 19.2707C2.82584 19.2707 2.82584 19.2707 2.82584 19.2707C2.82584 19.2707 2.82584 19.2707 2.82584 19.2707C2.82584 19.2707 2.82584 19.2707 2.82584 19.2707C2.82584 19.2707 2.82584 19.2707 2.82584 19.2707C2.82584 19.2707 2.82584 19.2707 2.82584 19.2707C2.82584 19.2707 2.82584 19.2707 2.82584 19.2707C2.82584 19.2707 2.82584 19.2707 2.82584 19.2707C2.82584 19.2707 2.82584 19.2707 2.82584 19.2707C2.82584 19.2707 2.82584 19.2707 2.82584 19.2707C2.82584 19.2707 2.82584 19.2707 2.82584 19.2707C2.82584 19.2707 2.82584 19.2707 2.82584 19.2707C2.82584 19.2707 2.82584 19.2707 2.82584 19.2707C2.82584 19.2707 2.82584 19.2707 2.82584 19.2707C2.82584 19.2707 2.82584 19.2707 2.82584 19.2707C2.82584 19.2707 2.82584 19.2707 2.82584 19.2707C2.82584 19.2707 2.82584 19.2707 2.82584 19.2707C2.82584 19.2707 2.82584 19.2707 2.82584 19.2707C2.82584 19.2707 2.82584 19.2707 2.82584 19.2707C2.82584 19.2707 2.82584 19.2707 2.82584 19.2707C2.82584 19.2707 2.82584 19.2707 2.82584 19.2707C2.82584 19.2707 2.82584 19.2707 2.82584 19.2707C2.82584 19.2707 2.82584 19.2707 2.82584 19.2707C2.82584 19.2707 2.82584 19.2707 2.82584 19.2707C2.82584 19.2707 2.82584 19.2707 2.82584 19.2707C2.82584 19.2707 2.82584 19.2707 2.82584 19.2707C2.82584 19.2707 2.82584 19.2707 2.82584 19.2707C2.82584 19.2707 2.82584 19.2707 2.82584 19.2707C2.82584 19.2707 2.82584 19.2707 2.82584 19.2707C2.82584 19.2707 2.82584 19.2707 2.82584 19.2707C2.82584 19.2707 2.82584 19.2707 2.82584 19.2707C2.82584 19.2707 2.82584 19.2707 2.82584 19.2707C2.82584 19.2707 2.82584 19.2707 2.82584 19.2707C2.82584 19.2707 2.82584 19.2707 2.82584 19.2707C2.82584 19.2707 2.82584 19.2707 2.82584 19.2707C2.82584 19.2707 2.82584 19.2707 2.82584 19.2707C2.82584 19.2707 2.82584 19.2707 2.82584 19.2707C2.82584 19.2707 2.82584 19.2707 2.82584 19.2707C2.82584 19.2707 2.82584 19.2707 2.82584 19.2707C2.82584 19.2707 2.82584 19.2707 2.82584 19.2707C2.82584 19.2707 2.82584 19.2707 2.82584 19.2707C2.82584 19.2707 2.82584 19.2707 2.82584 19.2707C2.82584 19.2707 2.82584 19.2707 2.82584 19.2707C2.82584 19.2707 2.82584 19.2707 2.82584 19.2707C2.82584 19.2707 2.82584 19.2707 2.82584 19.2707C2.82584 19.2707 2.82584 19.2707 2.82584 19.2707C2.82584 19.2707 2.82584 19.2707 2.82584 19.2707C2.82584 19.2707 2.82584 19.2707 2.82584 19.2707C2.82584 19.2707 2.82584 19.2707 2.82584 19.2707C2.82584 19.2707 2.82584 19.2707 2.82584 19.2707C2.82584 19.2707 2.82584 19.2707 2.82584 19.2707C2.82584 19.2707 2.82584 19.2707 2.82584 19.2707C2.82584 19.2707 2.82584 19.2707 2.82584 19.2707C2.82584 19.2707 2.82584 19.2707 2.82584 19.2707C2.82584 19.2707 2.82584 19.2707 2.82584 19.2707C2.82584 19.2707 2.82584 19.2707 2.82584 19.2707C2.82584 19.2707 2.82584 19.2707 2.82584 19.2707C2.82584 19.2707 2.82584 19.2707 2.82584 19.2707C2.82584 19.2707 2.82584 19.2707 2.82584 19.2707C2.82584 19.2707 2.82584 19.2707 2.82584 19.2707C2.82584 19.2707 2.82584 19.2707 2.82584 19.2707C2.82584 19.2707 2.82584 19.2707 2.82584 19.2707C2.82584 19.2707 2.82584 19.2707 2.82584 19.2707C2.82584 19.2707 2.82584 19.2707 2.82584 19.2707C2.82584 19.2707 2.82584 19.2707 2.82584 19.2707C2.82584 19.2707 2.82584 19.2707 2.82584 19.2707C2.82584 19.2707 2.82584 19.2707 2.82584 19.2707C2.82584 19.2707 2.82584 19.2707 2.82584 19.2707C2.82584 19.2707 2.82584 19.2707 2.82584 19.2707C2.82584 19.2707 2.82584 19.2707 2.82584 19.2707C2.82584 19.2707 2.82584 19.2707 2.82584 19.2707C2.82584 19.2707 2.82584 19.2707 2.82584 19.2707C2.82584 19.2707 2.82584 19.2707 2.82584 19.2707C2.82584 19.2707 2.82584 19.2707 2.82584 19.2707C2.82584 19.2707 2.82584 19.2707 2.82584 19.2707C2.82584 19.2707 2.82584 19.2707 2.82584 19.2707C2.82584 19.2707 2.82584 19.2707 2.82584 19.2707C2.82584 19.2707 2.82584 19.2707 2.82584 19.2707C2.82584 19.2707 2.82584 19.2707 2.82584 19.2707C2.82584 19.2707 2.82584 19.2707 2.82584 19.2707C2.82584 19.2707 2.82584 19.2707 2.82584 19.2707C2.82584 19.2707 2.82584 19.2707 2.82584 19.2707C2.82584 19.2707 2.82584 19.2707 2.82584 19.2707C2.82584 19.2707 2.82584 19.2707 2.82584 19.2707C2.82584 19.2707 2.82584 19.2707 2.82584 19.2707C2.82584 19.2707 2.82584 19.2707 2.82584 19.2707C2.82584 19.2707 2.82584 19.2707 2.82584 19.2707C2.82584 19.2707 2.82584 19.2707 2.82584 19.2707C2.82584 19.2707 2.82584 19.2707 2.82584 19.2707C2.82584 19.2707 2.82584 19.2707 2.82584 19.2707C2.82584 19.2707 2.82584 19.2707 2.82584 19.2707C2.82584 19.2707 2.82584 19.2707 2.82584 19.2707C2.82584 19.2707 2.82584 19.2707 2.82584 19.2707C2.82584 19.2707 2.82584 19.2707 2.82584 19.2707C2.82584 19.2707 2.82584 19.2707 2.82584 19.2707C2.82584 19.2707 2.82584 19.2707 2.82584 19.2707C2.82584 19.2707 2.82584 19.2707 2.82584 19.2707C2.82584 19.2707 2.82584 19.2707 2.82584 19.2707C2.82584 19.2707 2.82584 19.2707 2.82584 19.2707C2.82584 19.2707 2.82584 19.2707 2.82584 19.2707C2.82584 19.2707 2.82584 19.2707 2.82584 19.2707C2.82584 19.2707 2.82584 19.2707 2.82584 19.2707C2.82584 19.2707 2.82584 19.2707 2.82584 19.2707C2.82584 19.2707 2.82584 19.2707 2.82584 19.2707C2.82584 19.2707 2.82584 19.2707 2.82584 19.2707C2.82584 19.2707 2.82584 19.2707 2.82584 19.2707C2.82584 19.2707 2.82584 19.2707 2.82584 19.2707C2.82584 19.2707 2.82584 19.2707 2.82584 19.2707C2.82584 19.2707 2.82584 19.2707 2.82584 19.2707C2.82584 19.2707 2.82584 19.2707 2.82584 19.2707C2.82584 19.2707 2.82584 19.2707 2.82584 19.2707C2.82584 19.2707 2.82584 19.2707 2.82584 19.2707C2.82584 19.2707 2.82584 19.2707 2.82584 19.2707C2.82584 19.2707 2.82584 19.2707 2.82584 19.2707C2.82584 19.2707 2.82584 19.2707 2.82584 19.2707C2.82584 19.2707 2.82584 19.2707 2.82584 19.2707C2.82584 19.2707 2.82584 19.2707 2.82584 19.2707C2.82584 19.2707 2.82584 19.2707 2.82584 19.2707C2.82584 19.2707 2.82584 19.2707 2.82584 19.2707C2.82584 19.2707 2.82584 19.2707 2.82584 19.2707C2.82584 19.2707 2.82584 19.2707 2.82584 19.2707C2.82584 19.2707 2.82584 19.2707 2.82584 19.2707C2.82584 19.2707 2.82584 19.2707 2.82584 19.2707C2.82584 19.2707 2.82584 19.2707 2.82584 19.2707C2.82584 19.2707 2.82584 19.2707 2.82584 19.2707C2.82584 19.2707 2.82584 19.2707 2.82584 19.2707C2.82584 19.2707 2.82584 19.2707 2.82584 19.2707C2.82584 19.2707 2.82584 19.2707 2.82584 19.2707C2.82584 19.2707 2.82584 19.2707 2.82584 19.2707C2.82584 19.2707 2.82584 19.2707 2.82584 19.2707C2.82584 19.2707 2.82584 19.2707 2.82584 19.2707C2.82584 19.2707 2.82584 19.2707 2.82584 19.2707C2.82584 19.2707 2.82584 19.2707 2.82584 19.2707C2.82584 19.2707 2.82584 19.2707 2.82584 19.2707C2.82584 19.2707 2.82584 19.2707 2.82584 19.2707C2.82584 19.2707 2.82584 19.2707 2.82584 19.2707C2.82584 19.2707 2.82584 19.2707 2.82584 19.2707C2.82584 19.2707 2.82584 19.2707 2.82584 19.2707C2.82584 19.2707 2.82584 19.2707 2.82584 19.2707C2.82584 19.2707 2.82584 19.2707 2.82584 19.2707C2.82584 19.2707 2.82584 19.2707 2.82584 19.2707C2.82584 19.2707 2.82584 19.2707 2.82584 19.2707C2.82584 19.2707 2.82584 19.2707 2.82584 19.2707C2.82584 19.2707 2.82584 19.2707 2.82584 19.2707C2.82584 19.2707 2.82584 19.2707 2.82584 19.2707C2.82584 19.2707 2.82584 19.2707 2.82584 19.2707C2.82584 19.2707 2.82584 19.2707 2.82584 19.2707C2.82584 19.2707 2.82584 19.2707 2.82584 19.2707C2.82584 19.2707 2.82584 19.2707 2.82584 19.2707C2.82584 19.2707 2.82584 19.2707 2.82584 19.2707C2.82584 19.2707 2.82584 19.2707 2.82584 19.2707C2.82584 19.2707 2.82584 19.2707 2.82584 19.2707C2.82584 19.2707 2.82584 19.2707 2.82584 19.2707C2.82584 19.2707 2.82584 19.2707 2.82584 19.2707C2.82584 19.2707 2.82584 19.2707 2.82584 19.2707C2.82584 19.2707 2.82584 19.2707 2.82584 19.2707C2.82584 19.2707 2.82584 19.2707 2.82584 19.2707C2.82584 19.2707 2.82584 19.2707 2.82584 19.2707C2.82584 19.2707 2.82584 19.2707 2.82584 19.2707C2.82584 19.2707 2.82584 19.2707 2.82584 19.2707C2.82584 19.2707 2.82584 19.2707 2.82584 19.2707C2.82584 19.2707 2.82584 19.2707 2.82584 19.2707C2.82584 19.2707 2.82584 19.2707 2.82584 19.2707C2.82584 19.2707 2.82584 19.2707 2.82584 19.2707C2.82584 19.2707 2.82584 19.2707 2.82584 19.2707C2.82584 19.2707 2.82584 19.2707 2.82584 19.2707C2.82584 19.2707 2.82584 19.2707 2.82584 19.2707C2.82584 19.2707 2.82584 19.2707 2.82584 19.2707C2.82584 19.2707 2.82584 19.2707 2.82584 19.2707C2.82584 19.2707 2.82584 19.2707 2.82584 19.2707C2.82584 19.2707 2.82584 19.2707 2.82584 19.2707C2.82584 19.2707 2.82584 19.2707 2.82584 19.2707C2.82584 19.2707 2.82584 19.2707 2.82584 19.2707C2.82584 19.2707 2.82584 19.2707 2.82584 19.2707C2.82584 19.2707 2.82584 19.2707 2.82584 19.2707C2.82584 19.2707 2.82584 19.2707 2.82584 19.2707C2.82584 19.2707 2.82584 19.2707 2.82584 19.2707C2.82584 19.2707 2.82584 19.2707 2.82584 19.2707C2.82584 19.2707 2.82584 19.2707 2.82584 19.2707C2.82584 19.2707 2.82584 19.2707 2.82584 19.2707C2.82584 19.2707 2.82584 19.2707 2.82584 19.2707C2.82584 19.2707 2.82584 19.2707 2.82584 19.2707C2.82584 19.2707 2.82584 19.2707 2.82584 19.2707C2.82584 19.2707 2.82584 19.2707 2.82584 19.2707C2.82584 19.2707 2.82584 19.2707 2.82584 19.2707C2.82584 19.2707 2.82584 19.2707 2.82584 19.2707C2.82584 19.2707 2.82584 19.2707 2.82584 19.2707C2.82584 19.2707 2.82584 19.2707 2.82584 19.2707C2.82584 19.2707 2.82584 19.2707 2.82584 19.2707C2.82584 19.2707 2.82584 19.2707 2.82584 19.2707C2.82584 19.2707 2.82584 19.2707 2.82584 19.2707C2.82584 19.2707 2.82584 19.2707 2.82584 19.2707C2.82584 19.2707 2.82584 19.2707 2.82584 19.2707C2.82584 19.2707 2.82584 19.2707 2.82584 19.2707C2.82584 19.2707 2.82584 19.2707 2.82584 19.2707C2.82584 19.2707 2.82584 19.2707 2.82584 19.2707C2.82584 19.2707 2.82584 19.2707 2.82584 19.2707C2.82584 19.2707 2.82584 19.2707 2.82584 19.2707C2.82584 19.2707 2.82584 19.2707 2.82584 19.2707C2.82584 19.2707 2.82584 19.2707 2.82584 19.2707C2.82584 19.2707 2.82584 19.2707 2.82584 19.2707C2.82584 19.2707 2.82584 19.2707 2.82584 19.2707C2.82584 19.2707 2.82584 19.2707 2.82584 19.2707C2.82584 19.2707 2.82584 19.2707 2.82584 19.2707C2.82584 19.2707 2.82584 19.2707 2.82584 19.2707C2.82584 19.2707 2.82584 19.2707 2.82584 19.2707C2.82584 19.2707 2.82584 19.2707 2.82584 19.2707C2.82584 19.2707 2.82584 19.2707 2.82584 19.2707C2.82584 19.2707 2.82584 19.2707 2.82584 19.2707C2.82584 19.2707 2.82584 19.2707 2.82584 19.2707C2.82584 19.2707 2.82584 19.2707 2.82584 19.2707C2.82584 19.2707 2.82584 19.2707 2.82584 19.2707C2.82584 19.2707 2.82584 19.2707 2.82584 19.2707C2.82584 19.2707 2.82584 19.2707 2.82584 19.2707C2.82584 19.2707 2.82584 19.2707 2.82584 19.2707C2.82584 19.2707 2.82584 19.2707 2.82584 19.2707C2.82584 19.2707 2.82584 19.2707 2.82584 19.2707C2.82584 19.2707 2.82584 19.2707 2.82584 19.2707C2.82584 19.2707 2.82584 19.2707 2.82584 19.2707C2.82584 19.2707 2.82584 19.2707 2.82584 19.2707C2.82584 19.2707 2.82584 19.2707 2.82584 19.2707C2.82584 19.2707 2.82584 19.2707 2.82584 19.2707C2.82584 19.2707 2.82584 19.2707 2.82584 19.2707C2.82584 19.2707 2.82584 19.2707 2.82584 19.2707C2.82584 19.2707 2.82584 19.2707 2.82584 19.2707C2.82584 19.2707 2.82584 19.2707 2.82584 19.2707C2.82584 19.2707 2.82584 19.2707 2.82584 19.2707C2.82584 19.2707 2.82584 19.2707 2.82584 19.2707C2.82584 19.2707 2.82584 19.2707 2.82584 19.2707C2.82584 19.2707 2.82584 19.2707 2.82584 19.2707C2.82584 19.2707 2.82584 19.2707 2.82584 19.2707C2.82584 19.2707 2.82584 19.2707 2.82584 19.2707C2.82584 19.2707 2.82584 19.2707 2.82584 19.2707C2.82584 19.2707 2.82584 19.2707 2.82584 19.2707C2.82584 19.2707 2.82584 19.2707 2.82584 19.2707C2.82584 19.2707 2.82584 19.2707 2.82584 19.2707C2.82584 19.2707 2.82584 19.2707 2.82584 19.2707C2.82584 19.2707 2.82584 19.2707 2.82584 19.2707C2.82584 19.2707 2.82584 19.2707 2.82584 19.2707C2.82584 19.2707 2.82584 19.2707 2.82584 19.2707C2.82584 19.2707 2.82584 19.2707 2.82584 19.2707C2.82584 19.2707 2.82584 19.2707 2.82584 19.2707C2.82584 19.2707 2.82584 19.2707 2.82584 19.2707C2.82584 19.2707 2.82584 19.2707 2.82584 19.2707C2.82584 19.2707 2.82584 19.2707 2.82584 19.2707C2.82584 19.2707 2.82584 19.2707 2.82584 19.2707C2.82584 19.2707 2.82584 19.2707 2.82584 19.2707C2.82584 19.2707 2.82584 19.2707 2.82584 19.2707C2.82584 19.2707 2.82584 19.2707 2.82584 19.2707C2.82584 19.2707 2.82584 19.2707 2.82584 19.2707C2.82584 19.2707 2.82584 19.2707 2.82584 19.2707C2.82584 19.2707 2.82584 19.2707 2.82584 19.2707C2.82584 19.2707 2.82584 19.2707 2.82584 19.2707C2.82584 19.2707 2.82584 19.2707 2.82584 19.2707C2.82584 19.2707 2.82584 19.2707 2.82584 19.2707C2.82584 19.2707 2.82584 19.2707 2.82584 19.2707C2.82584 19.2707 2.82584 19.2707 2.82584 19.2707C2.82584 19.2707 2.82584 19.2707 2.82584 19.2707C2.82584 19.2707 2.82584 19.2707 2.82584 19.2707C2.82584 19.2707 2.82584 19.2707 2.82584 19.2707C2.82584 19.2707 2.82584 19.2707 2.82584 19.2707C2.82584 19.2707 2.82584 19.2707 2.82584 19.2707C2.82584 19.2707 2.82584 19.2707 2.82584 19.2707C2.82584 19.2707 2.82584 19.2707 2.82584 19.2707C2.82584 19.2707 2.82584 19.2707 2.82584 19.2707C2.82584 19.2707 2.82584 19.2707 2.82584 19.2707C2.82584 19.2707 2.82584 19.2707 2.82584 19.2707C2.82584 19.2707 2.82584 19.2707 2.82584 19.2707C2.82584 19.2707 2.82584 19.2707 2.82584 19.2707C2.82584 19.2707 2.82584 19.2707 2.82584 19.2707C2.82584 19.2707 2.82584 19.2707 2.82584 19.2707C2.82584 19.2707 2.82584 19.2707 2.82584 19.2707C2.82584 19.2707 2.82584 19.2707 2.82584 19.2707C2.82584 19.2707 2.82584 19.2707 2.82584 19.2707C2.82584 19.2707 2.82584 19.2707 2.82584 19.2707C2.82584 19.2707 2.82584 19.2707 2.82584 19.2707C2.82584 19.2707 2.82584 19.2707 2.82584 19.2707C2.82584 19.2707 2.82584 19.2707 2.82584 19.2707C2.82584 19.2707 2.82584 19.2707 2.82584 19.2707C2.82584 19.2707 2.82584 19.2707 2.82584 19.2707C2.82584 19.2707 2.82584 19.2707 2.82584 19.2707C2.82584 19.2707 2.82584 19.2707 2.82584 19.2707C2.82584 19.2707 2.82584 19.2707 2.82584 19.2707C2.82584 19.2707 2.82584 19.2707 2.82584 19.2707C2.82584 19.2707 2.82584 19.2707 2.82584 19.2707C2.82584 19.2707 2.82584 19.2707 2.82584 19.2707C2.82584 19.2707 2.82584 19.2707 2.82584 19.2707C2.82584 19.2707 2.82584 19.2707 2.82584 19.2707C2.82584 19.2707 2.82584 19.2707 2.82584 19.2707C2.82584 19.2707 2.82584 19.2707 2.82584 19.2707C2.82584 19.2707 2.82584 19.2707 2.82584 19.2707C2.82584 19.2707 2.82584 19.2707 2.82584 19.2707C2.82584 19.2707 2.82584 19.2707 2.82584 19.2707C2.82584 19.2707 2.82584 19.2707 2.82584 19.2707C2.82584 19.2707 2.82584 19.2707 2.82584 19.2707C2.82584 19.2707 2.82584 19.2707 2.82584 19.2707C2.82584 19.2707 2.82584 19.2707 2.82584 19.2707C2.82584 19.2707 2.82584 19.2707 2.82584 19.2707C2.82584 19.2707 2.82584 19.2707 2.82584 19.2707C2.82584 19.2707 2.82584 19.2707 2.82584 19.2707C2.82584 19.2707 2.82584 19.2707 2.82584 19.2707C2.82584 19.2707 2.82584 19.2707 2.82584 19.2707C2.82584 19.2707 2.82584 19.2707 2.82584 19.2707C2.82584 19.2707 2.82584 19.2707 2.82584 19.2707C2.82584 19.2707 2.82584 19.2707 2.82584 19.2707C2.82584 19.2707 2.82584 19.2707 2.82584 19.2707C2.82584 19.2707 2.82584 19.2707 2.82584 19.2707C2.82584 19.2707 2.82584 19.2707 2.82584 19.2707C2.82584 19.2707 2.82584 19.2707 2.82584 19.2707C2.82584 19.2707 2.82584 19.2707 2.82584 19.2707C2.82584 19.2707 2.82584 19.2707 2.82584 19.2707C2.82584 19.2707 2.82584 19.2707 2.82584 19.2707C2.82584 19.2707 2.82584 19.2707 2.82584 19.2707C2.82584 19.2708 2.82584 19.2708 2.82584 19.2708C2.82584 19.2708 2.82584 19.2708 2.82584 19.2708C2.82584 19.2708 2.82584 19.2708 2.82584 19.2708C2.82584 19.2708 2.82584 19.2708 2.82584 19.2708C2.82584 19.2708 2.82584 19.2708 2.82584 19.2708C2.82584 19.2708 2.82584 19.2708 2.82584 19.2708C2.82584 19.2708 2.82584 19.2708 2.82584 19.2708C2.82584 19.2708 2.82584 19.2708 2.82584 19.2708C2.82584 19.2708 2.82584 19.2708 2.82584 19.2708C2.82584 19.2708 2.82584 19.2708 2.82584 19.2708C2.82584 19.2708 2.82584 19.2708 2.82584 19.2708C2.82584 19.2708 2.82584 19.2708 2.82584 19.2708C2.82584 19.2708 2.82584 19.2708 2.82584 19.2708C2.82584 19.2708 2.82584 19.2708 2.82584 19.2708C2.82584 19.2708 2.82584 19.2708 2.82584 19.2708C2.82584 19.2708 2.82584 19.2708 2.82584 19.2708C2.82584 19.2708 2.82584 19.2708 2.82584 19.2708C2.82584 19.2708 2.82584 19.2708 2.82584 19.2708C2.82584 19.2708 2.82584 19.2708 2.82584 19.2708C2.82584 19.2708 2.82584 19.2708 2.82584 19.2708C2.82584 19.2708 2.82584 19.2708 2.82584 19.2708C2.82584 19.2708 2.82584 19.2708 2.82584 19.2708C2.82584 19.2708 2.82584 19.2708 2.82584 19.2708C2.82584 19.2708 2.82584 19.2708 2.82584 19.2708C2.82584 19.2708 2.82584 19.2708 2.82584 19.2708C2.82584 19.2708 2.82584 19.2708 2.82584 19.2708C2.82584 19.2708 2.82584 19.2708 2.82584 19.2708C2.82584 19.2708 2.82584 19.2708 2.82584 19.2708C2.82584 19.2708 2.82584 19.2708 2.82584 19.2708C2.82584 19.2708 2.82584 19.2708 2.82584 19.2708C2.82584 19.2708 2.82584 19.2708 2.82584 19.2708C2.82584 19.2708 2.82584 19.2708 2.82584 19.2708C2.82584 19.2708 2.82584 19.2708 2.82584 19.2708C2.82584 19.2708 2.82584 19.2708 2.82584 19.2708C2.82584 19.2708 2.82584 19.2708 2.82584 19.2708C2.82584 19.2708 2.82584 19.2708 2.82584 19.2708C2.82584 19.2708 2.82584 19.2708 2.82584 19.2708C2.82584 19.2708 2.82584 19.2708 2.82584 19.2708C2.82584 19.2708 2.82584 19.2708 2.82584 19.2708C2.82584 19.2708 2.82584 19.2708 2.82584 19.2708C2.82584 19.2708 2.82584 19.2708 2.82584 19.2708C2.82584 19.2708 2.82584 19.2708 2.82584 19.2708C2.82584 19.2708 2.82584 19.2708 2.82584 19.2708C2.82584 19.2708 2.82584 19.2708 2.82584 19.2708C2.82584 19.2708 2.82584 19.2708 2.82584 19.2708C2.82584 19.2708 2.82584 19.2708 2.82584 19.2708C2.82584 19.2708 2.82584 19.2708 2.82584 19.2708C2.82584 19.2708 2.82584 19.2708 2.82584 19.2708C2.82584 19.2708 2.82584 19.2708 2.82584 19.2708C2.82584 19.2708 2.82584 19.2708 2.82584 19.2708C2.82584 19.2708 2.82584 19.2708 2.82584 19.2708C2.82584 19.2708 2.82584 19.2708 2.82584 19.2708C2.82584 19.2708 2.82584 19.2708 2.82584 19.2708C2.82584 19.2708 2.82584 19.2708 2.82584 19.2708C2.82584 19.2708 2.82584 19.2708 2.82584 19.2708C2.82584 19.2708 2.82584 19.2708 2.82584 19.2708C2.82584 19.2708 2.82584 19.2708 2.82584 19.2708C2.82584 19.2708 2.82584 19.2708 2.82584 19.2708C2.82584 19.2708 2.82584 19.2708 2.82584 19.2708C2.82584 19.2708 2.82584 19.2708 2.82584 19.2708C2.82584 19.2708 2.82584 19.2708 2.82584 19.2708C2.82584 19.2708 2.82584 19.2708 2.82584 19.2708C2.82584 19.2708 2.82584 19.2708 2.82584 19.2708C2.82584 19.2708 2.82584 19.2708 2.82584 19.2708C2.82584 19.2708 2.82584 19.2708 2.82584 19.2708C2.82584 19.2708 2.82584 19.2708 2.82584 19.2708C2.82584 19.2708 2.82584 19.2708 2.82584 19.2708C2.82584 19.2708 2.82584 19.2708 2.82584 19.2708C2.82584 19.2708 2.82584 19.2708 2.82584 19.2708C2.82584 19.2708 2.82584 19.2708 2.82584 19.2708C2.82584 19.2708 2.82584 19.2708 2.82584 19.2708C2.82584 19.2708 2.82584 19.2708 2.82584 19.2708C2.82584 19.2708 2.82584 19.2708 2.82584 19.2708C2.82584 19.2708 2.82584 19.2708 2.82584 19.2708C2.82584 19.2708 2.82584 19.2708 2.82584 19.2708C2.82584 19.2708 2.82584 19.2708 2.82584 19.2708C2.82584 19.2708 2.82584 19.2708 2.82584 19.2708C2.82584 19.2708 2.82584 19.2708 2.82584 19.2708C2.82584 19.2708 2.82584 19.2708 2.82584 19.2708C2.82584 19.2708 2.82584 19.2708 2.82584 19.2708C2.82584 19.2708 2.82584 19.2708 2.82584 19.2708C2.82584 19.2708 2.82584 19.2708 2.82584 19.2708C2.82584 19.2708 2.82584 19.2708 2.82584 19.2708C2.82584 19.2708 2.82584 19.2708 2.82584 19.2708C2.82584 19.2708 2.82584 19.2708 2.82584 19.2708C2.82584 19.2708 2.82584 19.2708 2.82584 19.2708C2.82584 19.2708 2.82584 19.2708 2.82584 19.2708C2.82584 19.2708 2.82584 19.2708 2.82584 19.2708C2.82584 19.2708 2.82584 19.2708 2.82584 19.2708C2.82584 19.2708 2.82584 19.2708 2.82584 19.2708C2.82584 19.2708 2.82584 19.2708 2.82584 19.2708C2.82584 19.2708 2.82584 19.2708 2.82584 19.2708C2.82584 19.2708 2.82584 19.2708 2.82584 19.2708C2.82584 19.2708 2.82584 19.2708 2.82584 19.2708C2.82584 19.2708 2.82584 19.2708 2.82584 19.2708C2.82584 19.2708 2.82584 19.2708 2.82584 19.2708C2.82584 19.2708 2.82584 19.2708 2.82584 19.2708C2.82584 19.2708 2.82584 19.2708 2.82584 19.2708C2.82584 19.2708 2.82584 19.2708 2.82584 19.2708C2.82584 19.2708 2.82584 19.2708 2.82584 19.2708C2.82584 19.2708 2.82584 19.2708 2.82584 19.2708C2.82584 19.2708 2.82584 19.2708 2.82584 19.2708C2.82584 19.2708 2.82584 19.2708 2.82584 19.2708C2.82584 19.2708 2.82584 19.2708 2.82584 19.2708C2.82584 19.2708 2.82584 19.2708 2.82584 19.2708C2.82584 19.2708 2.82584 19.2708 2.82584 19.2708C2.82584 19.2708 2.82584 19.2708 2.82584 19.2708C2.82584 19.2708 2.82584 19.2708 2.82584 19.2708C2.82584 19.2708 2.82584 19.2708 2.82584 19.2708C2.82584 19.2708 2.82584 19.2708 2.82584 19.2708C2.82584 19.2708 2.82584 19.2708 2.82584 19.2708C2.82584 19.2708 2.82584 19.2708 2.82584 19.2708C2.82584 19.2708 2.82584 19.2708 2.82584 19.2708C2.82584 19.2708 2.82584 19.2708 2.82584 19.2708C2.82584 19.2708 2.82584 19.2708 2.82584 19.2708C2.82584 19.2708 2.82584 19.2708 2.82584 19.2708C2.82584 19.2708 2.82584 19.2708 2.82584 19.2708C2.82584 19.2708 2.82584 19.2708 2.82584 19.2708C2.82584 19.2708 2.82584 19.2708 2.82584 19.2708C2.82584 19.2708 2.82584 19.2708 2.82584 19.2708C2.82584 19.2708 2.82584 19.2708 2.82584 19.2708C2.82584 19.2708 2.82584 19.2708 2.82584 19.2708C2.82584 19.2708 2.82584 19.2708 2.82584 19.2708C2.82584 19.2708 2.82584 19.2708 2.82584 19.2708C2.82584 19.2708 2.82584 19.2708 2.82584 19.2708C2.82584 19.2708 2.82584 19.2708 2.82584 19.2708C2.82584 19.2708 2.82584 19.2708 2.82584 19.2708C2.82584 19.2708 2.82584 19.2708 2.82584 19.2708C2.82584 19.2708 2.82584 19.2708 2.82584 19.2708C2.82584 19.2708 2.82584 19.2708 2.82584 19.2708C2.82584 19.2708 2.82584 19.2708 2.82584 19.2708C2.82584 19.2708 2.82584 19.2708 2.82584 19.2708C2.82584 19.2708 2.82584 19.2708 2.82584 19.2708C2.82584 19.2708 2.82584 19.2708 2.82584 19.2708C2.82584 19.2708 2.82584 19.2708 2.82584 19.2708C2.82584 19.2708 2.82584 19.2708 2.82584 19.2708C2.82584 19.2708 2.82584 19.2708 2.82584 19.2708C2.82584 19.2708 2.82584 19.2708 2.82584 19.2708C2.82584 19.2708 2.82584 19.2708 2.82584 19.2708C2.82584 19.2708 2.82584 19.2708 2.82584 19.2708C2.82584 19.2708 2.82584 19.2708 2.82584 19.2708C2.82584 19.2708 2.82584 19.2708 2.82584 19.2708C2.82584 19.2708 2.82584 19.2708 2.82584 19.2708C2.82584 19.2708 2.82584 19.2708 2.82584 19.2708C2.82584 19.2708 2.82584 19.2708 2.82584 19.2708H5.52011ZM9.51938 27.2611C7.08861 25.4383 5.52011 22.5379 5.52011 19.2708H2.82584C2.82584 23.4219 4.82291 27.107 7.903 29.4167L9.51938 27.2611ZM13.0667 37.6757C13.0078 34.8577 12.4242 32.0826 11.3531 29.4905L8.86301 30.5194C9.80684 32.8035 10.3211 35.2489 10.373 37.732L13.0667 37.6757ZM18.2749 37.1439C16.5282 38.0173 14.4723 38.0173 12.7256 37.1439L11.5207 39.5538C14.0259 40.8064 16.9746 40.8064 19.4798 39.5538L18.2749 37.1439ZM19.6474 29.4905C18.5763 32.0826 17.9927 34.8577 17.9338 37.6757L20.6275 37.732C20.6794 35.2489 21.1937 32.8035 22.1375 30.5194L19.6474 29.4905ZM19.4798 39.5538C20.1856 39.2009 20.6117 38.4891 20.6275 37.732L17.9338 37.6757C17.9382 37.4647 18.0578 37.2525 18.2749 37.1439L19.4798 39.5538ZM7.903 29.4167C8.18414 29.6275 8.3613 29.7607 8.48969 29.8656C8.61851 29.9709 8.63316 29.9965 8.61801 29.9769L10.7471 28.3258C10.4503 27.9431 9.98074 27.6071 9.51938 27.2611L7.903 29.4167ZM11.3531 29.4905C11.1961 29.1105 11.0378 28.7007 10.7471 28.3258L8.61801 29.9769C8.62212 29.9822 8.63634 29.9995 8.6724 30.0745C8.71656 30.1662 8.76778 30.2889 8.86301 30.5194L11.3531 29.4905ZM10.373 37.732C10.3888 38.4891 10.8149 39.2009 11.5207 39.5538L12.7256 37.1439C12.9427 37.2525 13.0623 37.4647 13.0667 37.6757L10.373 37.732ZM21.4811 27.2611C21.0198 27.6071 20.5502 27.9431 20.2534 28.3258L22.3825 29.9769C22.3673 29.9965 22.382 29.9709 22.5108 29.8656C22.6392 29.7607 22.8164 29.6275 23.0975 29.4167L21.4811 27.2611ZM22.1375 30.5194C22.2327 30.2889 22.2839 30.1662 22.3281 30.0745C22.3642 29.9995 22.3784 29.9822 22.3825 29.9769L20.2534 28.3258C19.9627 28.7007 19.8044 29.1105 19.6474 29.4905L22.1375 30.5194Z" fill="white"/>
<path d="M19.7198 30.291C17.0112 31.3744 13.9897 31.3744 11.2811 30.291L10.2804 32.7925C13.6314 34.1329 17.3695 34.1329 20.7205 32.7925L19.7198 30.291Z" fill="white"/>
</svg>
