<svg width="1179" height="668" viewBox="0 0 1179 668" fill="none" xmlns="http://www.w3.org/2000/svg">
<g opacity="0.6" filter="url(#filter0_f_1_687)">
<ellipse cx="585" cy="550" rx="233" ry="88" fill="url(#paint0_radial_1_687)"/>
<ellipse cx="585" cy="550" rx="233" ry="88" fill="url(#paint1_radial_1_687)"/>
</g>
<g opacity="0.6" filter="url(#filter1_bi_1_687)">
<ellipse cx="585" cy="520" rx="233" ry="88" fill="url(#paint2_radial_1_687)"/>
<ellipse cx="585" cy="520" rx="233" ry="88" fill="url(#paint3_radial_1_687)"/>
</g>
<g opacity="0.7" filter="url(#filter2_i_1_687)">
<path d="M383 473.5C383 515.75 473.439 550 585 550C696.562 550 787 515.75 787 473.5C787 431.25 696.562 397 585 397C473.439 397 383 431.25 383 473.5Z" fill="url(#paint4_radial_1_687)"/>
<path d="M383 473.5C383 515.75 473.439 550 585 550C696.562 550 787 515.75 787 473.5C787 431.25 696.562 397 585 397C473.439 397 383 431.25 383 473.5Z" fill="url(#paint5_radial_1_687)"/>
</g>
<g opacity="0.7" filter="url(#filter3_i_1_687)">
<path d="M752 428C752 462.794 677.232 491 585 491C492.769 491 418 462.794 418 428C418 393.206 492.769 365 585 365C677.232 365 752 393.206 752 428Z" fill="url(#paint6_radial_1_687)"/>
<path d="M752 428C752 462.794 677.232 491 585 491C492.769 491 418 462.794 418 428C418 393.206 492.769 365 585 365C677.232 365 752 393.206 752 428Z" fill="url(#paint7_radial_1_687)"/>
</g>
<path d="M450.706 226C450.839 225.951 450.977 225.9 451.12 225.847C452.863 225.199 455.266 224.257 457.906 223.085C463.155 220.755 469.461 217.461 473.332 213.683C477.688 209.432 480.818 202.762 482.85 197.253C483.788 194.71 484.502 192.387 485 190.617C485.498 192.387 486.212 194.71 487.15 197.253C489.182 202.762 492.312 209.432 496.668 213.683C500.54 217.461 506.845 220.755 512.094 223.085C514.734 224.257 517.137 225.199 518.88 225.847C519.023 225.9 519.161 225.951 519.294 226C519.161 226.049 519.023 226.1 518.88 226.153C517.137 226.801 514.734 227.743 512.094 228.915C506.845 231.245 500.54 234.539 496.668 238.317C492.312 242.568 489.182 249.238 487.15 254.747C486.212 257.29 485.498 259.613 485 261.383C484.502 259.613 483.788 257.29 482.85 254.747C480.818 249.238 477.688 242.568 473.332 238.317C469.461 234.539 463.155 231.245 457.906 228.915C455.266 227.743 452.863 226.801 451.12 226.153C450.977 226.1 450.839 226.049 450.706 226Z" fill="white" stroke="url(#paint8_linear_1_687)" stroke-width="1.8"/>
<path d="M683.607 277.358C684.621 277.807 685.568 278.192 686.364 278.5C685.568 278.808 684.621 279.193 683.607 279.642C680.837 280.868 677.452 282.625 675.353 284.668C672.986 286.972 671.31 290.554 670.234 293.462C669.951 294.227 669.707 294.953 669.5 295.611C669.293 294.953 669.049 294.227 668.766 293.462C667.691 290.554 666.014 286.972 663.647 284.668C661.548 282.625 658.163 280.868 655.393 279.642C654.38 279.193 653.432 278.808 652.636 278.5C653.432 278.192 654.38 277.807 655.393 277.358C658.163 276.132 661.548 274.375 663.647 272.332C666.014 270.028 667.691 266.446 668.766 263.538C669.049 262.773 669.293 262.047 669.5 261.389C669.707 262.047 669.951 262.773 670.234 263.538C671.31 266.446 672.986 270.028 675.353 272.332C677.452 274.375 680.837 276.132 683.607 277.358Z" fill="white" stroke="url(#paint9_linear_1_687)" stroke-width="1.8"/>
<path d="M713.25 161.097C714.028 161.444 714.761 161.747 715.4 162C714.761 162.253 714.028 162.556 713.25 162.903C710.833 163.981 707.865 165.53 706.02 167.339C703.938 169.381 702.47 172.546 701.531 175.101C701.333 175.642 701.156 176.161 701 176.644C700.844 176.161 700.668 175.642 700.469 175.101C699.531 172.546 698.062 169.381 695.98 167.339C694.135 165.53 691.167 163.981 688.75 162.903C687.972 162.556 687.239 162.253 686.6 162C687.239 161.747 687.972 161.444 688.75 161.097C691.167 160.019 694.135 158.47 695.98 156.661C698.062 154.619 699.531 151.454 700.469 148.899C700.668 148.358 700.844 147.839 701 147.356C701.156 147.839 701.333 148.358 701.531 148.899C702.47 151.454 703.938 154.619 706.02 156.661C707.865 158.47 710.833 160.019 713.25 161.097Z" fill="white" stroke="url(#paint10_linear_1_687)" stroke-width="1.8"/>
<g filter="url(#filter4_d_1_687)">
<ellipse cx="589" cy="310" rx="166" ry="104" fill="url(#paint11_linear_1_687)" fill-opacity="0.5" shape-rendering="crispEdges"/>
<path d="M754.299 310C754.299 338.391 735.929 364.199 706.008 382.945C676.096 401.685 634.729 413.299 589 413.299C543.271 413.299 501.904 401.685 471.992 382.945C442.071 364.199 423.701 338.391 423.701 310C423.701 281.609 442.071 255.801 471.992 237.055C501.904 218.315 543.271 206.701 589 206.701C634.729 206.701 676.096 218.315 706.008 237.055C735.929 255.801 754.299 281.609 754.299 310Z" stroke="url(#paint12_linear_1_687)" stroke-opacity="0.6" stroke-width="1.40155" shape-rendering="crispEdges"/>
</g>
<circle cx="588.5" cy="212.5" r="210.5" fill="url(#paint13_radial_1_687)"/>
<ellipse cx="589" cy="247.5" rx="206" ry="120.5" fill="url(#paint14_linear_1_687)" fill-opacity="0.5"/>
<path d="M794.263 237.233C794.589 239.492 794.808 241.769 794.918 244.061L794.218 244.095C794.272 245.226 794.299 246.361 794.299 247.5C794.299 248.639 794.272 249.774 794.218 250.905L794.918 250.939C794.808 253.231 794.589 255.508 794.263 257.767L793.569 257.667C793.246 259.909 792.816 262.133 792.284 264.339L792.965 264.504C792.43 266.721 791.791 268.919 791.053 271.095L790.389 270.87C789.664 273.005 788.842 275.121 787.925 277.215L788.567 277.496C787.657 279.574 786.654 281.631 785.561 283.664L784.944 283.333C783.881 285.312 782.731 287.27 781.499 289.205L782.09 289.582C780.874 291.49 779.577 293.376 778.203 295.237L777.639 294.821C776.305 296.628 774.896 298.413 773.415 300.173L773.951 300.624C772.496 302.355 770.971 304.063 769.38 305.745L768.871 305.264C767.325 306.898 765.716 308.509 764.045 310.096L764.528 310.604C762.887 312.162 761.187 313.697 759.43 315.208L758.973 314.676C757.265 316.145 755.502 317.59 753.686 319.012L754.118 319.564C752.338 320.957 750.508 322.327 748.629 323.672L748.221 323.103C746.39 324.414 744.512 325.702 742.59 326.967L742.975 327.552C741.084 328.796 739.15 330.016 737.173 331.213L736.811 330.613C734.88 331.782 732.909 332.929 730.899 334.051L731.241 334.663C729.261 335.769 727.243 336.852 725.189 337.912L724.868 337.289C722.856 338.326 720.81 339.341 718.729 340.333L719.03 340.966C716.981 341.942 714.899 342.897 712.785 343.827L712.503 343.186C710.436 344.096 708.338 344.985 706.211 345.85L706.475 346.499C704.373 347.354 702.243 348.187 700.085 348.996L699.839 348.34C697.716 349.137 695.567 349.911 693.392 350.663L693.621 351.325C691.469 352.069 689.291 352.79 687.09 353.489L686.878 352.821C684.721 353.505 682.542 354.167 680.34 354.807L680.535 355.48C678.354 356.114 676.15 356.726 673.926 357.316L673.746 356.639C671.551 357.22 669.335 357.78 667.099 358.318L667.263 358.999C665.049 359.532 662.815 360.042 660.563 360.53L660.415 359.845C658.2 360.325 655.967 360.783 653.717 361.22L653.85 361.908C651.616 362.341 649.364 362.752 647.096 363.142L646.977 362.451C644.734 362.836 642.474 363.199 640.199 363.54L640.303 364.233C638.056 364.57 635.794 364.886 633.518 365.179L633.428 364.484C631.175 364.774 628.907 365.043 626.626 365.29L626.702 365.986C624.433 366.232 622.151 366.456 619.856 366.657L619.795 365.959C617.534 366.158 615.26 366.335 612.975 366.49L613.023 367.189C610.75 367.344 608.466 367.477 606.171 367.587L606.137 366.887C603.861 366.997 601.574 367.085 599.278 367.152L599.298 367.852C597.024 367.918 594.74 367.961 592.446 367.983L592.44 367.283C591.295 367.294 590.149 367.299 589 367.299C587.851 367.299 586.705 367.294 585.56 367.283L585.554 367.983C583.26 367.961 580.976 367.918 578.702 367.852L578.722 367.152C576.426 367.085 574.139 366.997 571.862 366.887L571.829 367.587C569.534 367.477 567.25 367.344 564.977 367.189L565.025 366.49C562.74 366.335 560.466 366.158 558.205 365.959L558.143 366.657C555.849 366.456 553.567 366.232 551.298 365.986L551.374 365.29C549.093 365.043 546.825 364.774 544.572 364.484L544.482 365.179C542.206 364.886 539.944 364.57 537.697 364.233L537.801 363.54C535.526 363.199 533.266 362.836 531.023 362.451L530.904 363.142C528.636 362.752 526.384 362.341 524.149 361.908L524.283 361.22C522.033 360.783 519.8 360.325 517.585 359.845L517.437 360.53C515.185 360.042 512.951 359.532 510.737 358.999L510.901 358.318C508.665 357.78 506.449 357.22 504.254 356.639L504.074 357.316C501.85 356.726 499.646 356.114 497.465 355.48L497.66 354.807C495.458 354.167 493.278 353.505 491.122 352.821L490.91 353.489C488.709 352.79 486.531 352.069 484.379 351.325L484.608 350.663C482.433 349.911 480.284 349.137 478.161 348.34L477.915 348.996C475.757 348.187 473.627 347.354 471.525 346.499L471.789 345.85C469.662 344.985 467.564 344.096 465.497 343.186L465.215 343.827C463.101 342.896 461.019 341.942 458.97 340.966L459.271 340.333C457.19 339.341 455.144 338.326 453.132 337.289L452.811 337.912C450.757 336.852 448.739 335.769 446.759 334.663L447.101 334.051C445.091 332.929 443.12 331.782 441.189 330.613L440.826 331.213C438.85 330.016 436.916 328.796 435.025 327.552L435.41 326.967C433.488 325.702 431.61 324.414 429.779 323.103L429.371 323.672C427.492 322.327 425.662 320.957 423.882 319.564L424.314 319.012C422.498 317.59 420.735 316.145 419.027 314.676L418.57 315.208C416.813 313.697 415.113 312.162 413.472 310.604L413.955 310.096C412.284 308.509 410.675 306.898 409.129 305.264L408.62 305.745C407.029 304.063 405.504 302.355 404.049 300.624L404.585 300.173C403.104 298.413 401.695 296.628 400.361 294.82L399.797 295.237C398.423 293.376 397.126 291.49 395.91 289.582L396.501 289.205C395.269 287.27 394.119 285.312 393.056 283.333L392.438 283.664C391.346 281.631 390.343 279.574 389.433 277.496L390.075 277.214C389.158 275.121 388.336 273.005 387.611 270.87L386.947 271.095C386.209 268.918 385.57 266.721 385.035 264.504L385.716 264.339C385.184 262.133 384.754 259.909 384.431 257.667L383.737 257.767C383.411 255.508 383.192 253.231 383.082 250.939L383.782 250.905C383.728 249.774 383.701 248.639 383.701 247.5C383.701 246.361 383.728 245.226 383.782 244.095L383.082 244.061C383.192 241.769 383.411 239.492 383.737 237.233L384.431 237.333C384.754 235.091 385.184 232.867 385.716 230.661L385.035 230.496C385.57 228.279 386.209 226.082 386.947 223.905L387.611 224.13C388.336 221.995 389.158 219.879 390.075 217.785L389.433 217.504C390.343 215.426 391.346 213.369 392.438 211.336L393.056 211.667C394.119 209.688 395.269 207.73 396.501 205.795L395.91 205.418C397.126 203.51 398.423 201.624 399.797 199.763L400.361 200.179C401.695 198.372 403.104 196.587 404.585 194.827L404.049 194.376C405.504 192.645 407.029 190.937 408.62 189.255L409.129 189.736C410.675 188.102 412.284 186.491 413.955 184.904L413.472 184.396C415.113 182.838 416.813 181.303 418.57 179.792L419.027 180.324C420.735 178.855 422.498 177.41 424.314 175.988L423.882 175.436C425.662 174.043 427.492 172.673 429.371 171.328L429.779 171.897C431.61 170.586 433.488 169.298 435.41 168.033L435.025 167.448C436.916 166.204 438.85 164.984 440.827 163.787L441.189 164.387C443.12 163.218 445.091 162.071 447.101 160.949L446.759 160.337C448.739 159.231 450.757 158.148 452.811 157.088L453.132 157.711C455.144 156.674 457.19 155.659 459.271 154.667L458.97 154.034C461.019 153.058 463.101 152.103 465.215 151.173L465.497 151.814C467.564 150.904 469.662 150.015 471.789 149.15L471.525 148.501C473.627 147.646 475.757 146.813 477.915 146.004L478.161 146.66C480.284 145.863 482.433 145.089 484.608 144.337L484.379 143.675C486.531 142.931 488.709 142.21 490.91 141.511L491.122 142.179C493.279 141.495 495.458 140.833 497.66 140.193L497.465 139.52C499.646 138.886 501.85 138.274 504.074 137.684L504.254 138.361C506.449 137.78 508.665 137.22 510.901 136.682L510.737 136.001C512.951 135.468 515.185 134.958 517.437 134.47L517.585 135.155C519.8 134.675 522.033 134.217 524.283 133.78L524.15 133.092C526.384 132.659 528.636 132.248 530.904 131.858L531.023 132.549C533.266 132.164 535.526 131.801 537.801 131.46L537.697 130.767C539.944 130.43 542.206 130.114 544.482 129.821L544.572 130.516C546.825 130.226 549.093 129.957 551.374 129.71L551.298 129.014C553.567 128.768 555.849 128.544 558.144 128.343L558.205 129.041C560.466 128.842 562.74 128.665 565.025 128.51L564.977 127.811C567.25 127.656 569.534 127.523 571.829 127.413L571.863 128.113C574.139 128.003 576.426 127.915 578.722 127.848L578.702 127.148C580.976 127.082 583.26 127.039 585.554 127.017L585.56 127.717C586.705 127.706 587.851 127.701 589 127.701C590.149 127.701 591.295 127.706 592.44 127.717L592.446 127.017C594.74 127.039 597.024 127.082 599.298 127.148L599.278 127.848C601.574 127.915 603.861 128.003 606.138 128.113L606.171 127.413C608.466 127.523 610.75 127.656 613.023 127.811L612.975 128.51C615.26 128.665 617.534 128.842 619.795 129.041L619.857 128.343C622.151 128.544 624.433 128.768 626.702 129.014L626.626 129.71C628.907 129.957 631.175 130.226 633.428 130.516L633.518 129.821C635.794 130.114 638.056 130.43 640.303 130.767L640.199 131.46C642.474 131.801 644.734 132.164 646.977 132.549L647.096 131.858C649.364 132.248 651.616 132.659 653.851 133.092L653.717 133.78C655.967 134.217 658.2 134.675 660.415 135.155L660.563 134.47C662.815 134.958 665.049 135.468 667.263 136.001L667.099 136.682C669.335 137.22 671.551 137.78 673.746 138.361L673.926 137.684C676.15 138.274 678.354 138.886 680.535 139.52L680.34 140.193C682.542 140.833 684.722 141.495 686.878 142.179L687.09 141.511C689.291 142.21 691.469 142.931 693.621 143.675L693.392 144.337C695.567 145.089 697.716 145.863 699.839 146.66L700.085 146.004C702.243 146.813 704.373 147.646 706.475 148.501L706.211 149.15C708.338 150.015 710.436 150.904 712.503 151.814L712.785 151.173C714.899 152.104 716.981 153.058 719.03 154.034L718.729 154.667C720.81 155.659 722.856 156.674 724.868 157.711L725.189 157.088C727.243 158.148 729.261 159.231 731.241 160.337L730.899 160.949C732.909 162.071 734.88 163.218 736.811 164.387L737.174 163.787C739.15 164.984 741.084 166.204 742.975 167.448L742.59 168.033C744.512 169.298 746.39 170.586 748.221 171.897L748.629 171.328C750.508 172.673 752.338 174.043 754.118 175.436L753.686 175.988C755.502 177.41 757.265 178.855 758.973 180.324L759.43 179.792C761.187 181.303 762.887 182.838 764.528 184.396L764.045 184.904C765.716 186.491 767.325 188.102 768.871 189.736L769.38 189.255C770.971 190.937 772.496 192.645 773.951 194.376L773.415 194.827C774.896 196.587 776.305 198.372 777.639 200.18L778.203 199.763C779.577 201.624 780.874 203.51 782.09 205.418L781.499 205.795C782.731 207.73 783.881 209.688 784.944 211.667L785.562 211.336C786.654 213.369 787.657 215.426 788.567 217.504L787.925 217.786C788.842 219.879 789.664 221.995 790.389 224.13L791.053 223.905C791.791 226.082 792.43 228.279 792.965 230.496L792.284 230.661C792.816 232.867 793.246 235.091 793.569 237.333L794.263 237.233Z" stroke="url(#paint15_linear_1_687)" stroke-opacity="0.6" stroke-width="1.40155" stroke-dasharray="7 7"/>
<circle cx="589" cy="213" r="156" fill="url(#paint16_radial_1_687)"/>
<circle cx="589" cy="213" r="156" fill="url(#paint17_radial_1_687)"/>
<g filter="url(#filter5_d_1_687)">
<ellipse cx="588.5" cy="172.5" rx="203.5" ry="117.5" fill="url(#paint18_linear_1_687)" fill-opacity="0.5" shape-rendering="crispEdges"/>
<path d="M791.299 172.5C791.299 204.59 768.766 233.776 732.046 254.978C695.344 276.17 644.594 289.299 588.5 289.299C532.406 289.299 481.656 276.17 444.954 254.978C408.234 233.776 385.701 204.59 385.701 172.5C385.701 140.41 408.234 111.224 444.954 90.0218C481.656 68.8304 532.406 55.7008 588.5 55.7008C644.594 55.7008 695.344 68.8304 732.046 90.0218C768.766 111.224 791.299 140.41 791.299 172.5Z" stroke="url(#paint19_linear_1_687)" stroke-opacity="0.6" stroke-width="1.40155" shape-rendering="crispEdges"/>
</g>
<g filter="url(#filter6_d_1_687)">
<ellipse cx="589" cy="112" rx="158" ry="102" fill="url(#paint20_linear_1_687)" fill-opacity="0.5" shape-rendering="crispEdges"/>
<path d="M745.944 100.141C746.41 102.74 746.725 105.369 746.882 108.024L746.183 108.066C746.26 109.371 746.299 110.682 746.299 112C746.299 113.318 746.26 114.629 746.183 115.934L746.882 115.976C746.725 118.631 746.41 121.26 745.944 123.859L745.254 123.736C744.791 126.314 744.178 128.863 743.42 131.379L744.091 131.581C743.332 134.104 742.428 136.593 741.386 139.045L740.741 138.771C739.723 141.166 738.572 143.527 737.293 145.849L737.907 146.187C736.643 148.481 735.255 150.737 733.75 152.952L733.17 152.558C731.711 154.705 730.139 156.813 728.46 158.879L729.004 159.321C727.354 161.352 725.601 163.342 723.749 165.288L723.242 164.806C721.455 166.685 719.575 168.524 717.606 170.321L718.078 170.839C716.147 172.601 714.131 174.323 712.034 176.001L711.596 175.454C709.564 177.08 707.454 178.665 705.272 180.207L705.677 180.779C703.543 182.287 701.34 183.753 699.071 185.176L698.698 184.582C696.492 185.966 694.222 187.308 691.893 188.607L692.234 189.219C689.945 190.496 687.6 191.73 685.2 192.921L684.888 192.293C682.548 193.454 680.156 194.574 677.714 195.65L677.997 196.292C675.597 197.35 673.149 198.366 670.656 199.34L670.401 198.687C667.968 199.637 665.492 200.546 662.974 201.412L663.202 202.075C660.721 202.928 658.2 203.741 655.642 204.51L655.44 203.839C652.934 204.592 650.392 205.305 647.816 205.975L647.993 206.653C645.45 207.314 642.874 207.934 640.268 208.51L640.116 207.826C637.558 208.392 634.97 208.917 632.353 209.4L632.481 210.089C629.894 210.566 627.281 211.001 624.643 211.394L624.539 210.701C621.945 211.087 619.326 211.432 616.685 211.734L616.764 212.43C614.15 212.73 611.513 212.987 608.856 213.202L608.8 212.504C606.184 212.716 603.547 212.886 600.893 213.014L600.927 213.714C598.297 213.84 595.649 213.926 592.985 213.968L592.974 213.268C591.653 213.289 590.329 213.299 589 213.299C587.671 213.299 586.347 213.289 585.026 213.268L585.015 213.968C582.351 213.926 579.703 213.84 577.073 213.714L577.107 213.014C574.453 212.886 571.816 212.716 569.2 212.504L569.144 213.202C566.487 212.987 563.85 212.73 561.236 212.43L561.315 211.734C558.674 211.432 556.055 211.087 553.461 210.701L553.357 211.394C550.719 211.001 548.106 210.566 545.519 210.089L545.647 209.4C543.03 208.917 540.442 208.392 537.884 207.826L537.732 208.51C535.126 207.934 532.55 207.314 530.007 206.653L530.184 205.975C527.608 205.305 525.066 204.592 522.56 203.839L522.358 204.51C519.8 203.741 517.279 202.928 514.798 202.075L515.026 201.412C512.509 200.546 510.032 199.637 507.599 198.687L507.344 199.34C504.851 198.366 502.403 197.35 500.003 196.292L500.286 195.65C497.844 194.574 495.452 193.454 493.112 192.293L492.8 192.921C490.4 191.73 488.055 190.496 485.766 189.219L486.107 188.607C483.778 187.308 481.508 185.966 479.301 184.582L478.929 185.176C476.66 183.753 474.457 182.287 472.323 180.779L472.728 180.207C470.546 178.665 468.436 177.08 466.404 175.454L465.966 176.001C463.869 174.323 461.853 172.601 459.922 170.839L460.394 170.321C458.425 168.524 456.545 166.685 454.758 164.806L454.251 165.288C452.399 163.342 450.646 161.352 448.996 159.321L449.54 158.879C447.861 156.813 446.289 154.705 444.83 152.558L444.25 152.952C442.745 150.737 441.357 148.481 440.093 146.187L440.707 145.849C439.428 143.527 438.277 141.166 437.259 138.771L436.614 139.045C435.572 136.593 434.668 134.104 433.909 131.581L434.58 131.379C433.822 128.863 433.209 126.314 432.746 123.735L432.056 123.859C431.59 121.26 431.275 118.631 431.118 115.976L431.817 115.934C431.74 114.629 431.701 113.318 431.701 112C431.701 110.682 431.74 109.371 431.817 108.066L431.118 108.024C431.275 105.369 431.59 102.74 432.056 100.141L432.746 100.264C433.209 97.6862 433.822 95.1371 434.58 92.6208L433.909 92.4186C434.668 89.8962 435.572 87.407 436.614 84.9546L437.259 85.2287C438.277 82.8336 439.428 80.4731 440.707 78.151L440.093 77.8128C441.357 75.5188 442.745 73.2626 444.25 71.0476L444.83 71.4416C446.289 69.2953 447.861 67.1873 449.54 65.1205L448.996 64.6786C450.646 62.6483 452.399 60.6583 454.251 58.7115L454.758 59.1944C456.545 57.3151 458.425 55.4758 460.394 53.6791L459.922 53.1614C461.853 51.3986 463.869 49.6771 465.966 47.9993L466.404 48.5464C468.436 46.9202 470.546 45.3349 472.728 43.793L472.323 43.2207C474.457 41.7129 476.66 40.2467 478.929 38.824L479.301 39.4177C481.508 38.0342 483.778 36.6918 486.107 35.3926L485.766 34.7806C488.055 33.5045 490.4 32.27 492.8 31.0791L493.112 31.7068C495.452 30.5458 497.844 29.4262 500.286 28.3497L500.003 27.7085C502.403 26.6502 504.851 25.6336 507.344 24.6602L507.599 25.3129C510.032 24.3628 512.508 23.454 515.026 22.5879L514.798 21.9252C517.279 21.0716 519.8 20.2594 522.358 19.4902L522.56 20.1613C525.066 19.4076 527.608 18.6952 530.184 18.0255L530.007 17.3473C532.55 16.6861 535.126 16.0665 537.732 15.4896L537.884 16.1738C540.442 15.6075 543.03 15.0826 545.647 14.6002L545.519 13.911C548.106 13.4341 550.719 12.9987 553.357 12.606L553.461 13.2991C556.055 12.913 558.674 12.5682 561.315 12.2659L561.236 11.5697C563.85 11.2705 566.487 11.0128 569.144 10.7977L569.2 11.4962C571.816 11.2844 574.453 11.1141 577.107 10.9862L577.073 10.2862C579.703 10.1595 582.351 10.0744 585.015 10.0318L585.026 10.7325C586.347 10.7114 587.671 10.7008 589 10.7008C590.329 10.7008 591.653 10.7114 592.974 10.7325L592.985 10.0318C595.649 10.0744 598.297 10.1595 600.927 10.2862L600.893 10.9862C603.547 11.1141 606.184 11.2844 608.8 11.4962L608.856 10.7977C611.513 11.0128 614.15 11.2705 616.764 11.5697L616.685 12.2659C619.326 12.5682 621.945 12.913 624.539 13.2991L624.643 12.606C627.281 12.9987 629.894 13.4341 632.481 13.911L632.353 14.6002C634.97 15.0826 637.558 15.6075 640.116 16.1738L640.268 15.4896C642.874 16.0665 645.45 16.6861 647.993 17.3473L647.816 18.0255C650.392 18.6952 652.934 19.4076 655.44 20.1613L655.642 19.4902C658.2 20.2594 660.721 21.0716 663.202 21.9252L662.974 22.5879C665.491 23.454 667.968 24.3628 670.401 25.3129L670.656 24.6602C673.149 25.6336 675.597 26.6502 677.997 27.7085L677.714 28.3497C680.156 29.4262 682.548 30.5458 684.888 31.7068L685.2 31.0791C687.6 32.27 689.945 33.5045 692.234 34.7806L691.893 35.3926C694.222 36.6918 696.492 38.0342 698.699 39.4177L699.071 38.824C701.34 40.2467 703.543 41.7129 705.677 43.2207L705.272 43.793C707.454 45.3349 709.564 46.9202 711.596 48.5464L712.034 47.9993C714.131 49.677 716.147 51.3986 718.078 53.1614L717.606 53.6791C719.575 55.4758 721.455 57.3151 723.242 59.1944L723.75 58.7115C725.601 60.6583 727.354 62.6483 729.004 64.6786L728.46 65.1205C730.139 67.1873 731.711 69.2953 733.17 71.4416L733.75 71.0476C735.255 73.2626 736.643 75.5188 737.907 77.8128L737.293 78.151C738.572 80.4732 739.723 82.8336 740.741 85.2287L741.386 84.9546C742.428 87.407 743.332 89.8962 744.091 92.4187L743.42 92.6208C744.178 95.1371 744.791 97.6862 745.254 100.265L745.944 100.141Z" stroke="url(#paint21_linear_1_687)" stroke-opacity="0.6" stroke-width="1.40155" stroke-dasharray="8 8" shape-rendering="crispEdges"/>
</g>
<ellipse cx="589.5" cy="76.5" rx="98.5" ry="66.5" fill="url(#paint22_linear_1_687)" fill-opacity="0.5"/>
<path d="M687.299 76.5C687.299 94.5604 676.456 110.993 658.758 122.942C641.063 134.888 616.579 142.299 589.5 142.299C562.421 142.299 537.937 134.888 520.242 122.942C502.544 110.993 491.701 94.5604 491.701 76.5C491.701 58.4396 502.544 42.007 520.242 30.0582C537.937 18.1122 562.421 10.7008 589.5 10.7008C616.579 10.7008 641.063 18.1122 658.758 30.0582C676.456 42.007 687.299 58.4396 687.299 76.5Z" stroke="url(#paint23_linear_1_687)" stroke-opacity="0.6" stroke-width="1.40155"/>
<ellipse cx="589" cy="54" rx="57" ry="39" fill="url(#paint24_linear_1_687)" fill-opacity="0.5"/>
<path d="M644.362 44.6806C645.078 46.6764 645.568 48.7325 645.815 50.8357L645.119 50.9174C645.238 51.9341 645.299 52.9622 645.299 54C645.299 55.0378 645.238 56.0659 645.119 57.0826L645.815 57.1643C645.568 59.2675 645.078 61.3236 644.362 63.3194L643.703 63.083C643.016 64.9991 642.116 66.8612 641.02 68.657L641.618 69.0221C640.54 70.7874 639.278 72.4868 637.848 74.1093L637.323 73.646C635.983 75.1656 634.493 76.6186 632.863 77.9949L633.315 78.5302C631.74 79.8611 630.039 81.1196 628.224 82.2973L627.843 81.7095C626.131 82.8206 624.316 83.8597 622.408 84.8192L622.723 85.4452C620.874 86.3755 618.939 87.2311 616.928 88.0057L616.676 87.3518C614.759 88.0904 612.772 88.7549 610.723 89.3394L610.915 90.0133C608.917 90.5832 606.861 91.0775 604.755 91.491L604.62 90.8034C602.596 91.201 600.524 91.5233 598.412 91.7655L598.492 92.4617C596.42 92.6993 594.311 92.8604 592.17 92.9407L592.144 92.2404C591.103 92.2794 590.055 92.2992 589 92.2992C587.945 92.2992 586.897 92.2794 585.856 92.2404L585.83 92.9407C583.689 92.8604 581.58 92.6993 579.508 92.4617L579.588 91.7655C577.476 91.5233 575.404 91.201 573.38 90.8034L573.245 91.491C571.139 91.0775 569.083 90.5832 567.085 90.0133L567.277 89.3394C565.228 88.7549 563.241 88.0904 561.324 87.3518L561.072 88.0057C559.061 87.2311 557.126 86.3755 555.277 85.4452L555.592 84.8192C553.684 83.8597 551.869 82.8206 550.157 81.7095L549.776 82.2973C547.961 81.1196 546.26 79.8611 544.685 78.5302L545.137 77.9949C543.507 76.6186 542.017 75.1656 540.677 73.646L540.152 74.1093C538.722 72.4868 537.46 70.7874 536.382 69.0221L536.98 68.657C535.884 66.8612 534.984 64.9991 534.297 63.083L533.638 63.3194C532.922 61.3236 532.432 59.2675 532.185 57.1643L532.881 57.0826C532.762 56.0659 532.701 55.0378 532.701 54C532.701 52.9622 532.762 51.9341 532.881 50.9174L532.185 50.8357C532.432 48.7325 532.922 46.6764 533.638 44.6806L534.297 44.917C534.984 43.0009 535.884 41.1388 536.98 39.343L536.382 38.9779C537.46 37.2126 538.722 35.5132 540.152 33.8907L540.677 34.354C542.017 32.8344 543.507 31.3814 545.137 30.0051L544.685 29.4698C546.26 28.1389 547.961 26.8804 549.776 25.7027L550.157 26.2905C551.869 25.1794 553.684 24.1403 555.592 23.1808L555.277 22.5548C557.126 21.6245 559.061 20.7689 561.072 19.9943L561.324 20.6482C563.241 19.9096 565.228 19.2451 567.277 18.6606L567.085 17.9867C569.083 17.4168 571.139 16.9225 573.245 16.509L573.38 17.1966C575.404 16.799 577.476 16.4767 579.588 16.2345L579.508 15.5383C581.58 15.3007 583.689 15.1396 585.83 15.0593L585.856 15.7596C586.897 15.7205 587.945 15.7008 589 15.7008C590.055 15.7008 591.103 15.7205 592.144 15.7596L592.17 15.0593C594.311 15.1396 596.42 15.3007 598.492 15.5383L598.412 16.2345C600.524 16.4767 602.596 16.799 604.62 17.1966L604.755 16.509C606.861 16.9225 608.917 17.4168 610.915 17.9867L610.723 18.6606C612.772 19.2451 614.759 19.9096 616.676 20.6482L616.928 19.9943C618.939 20.7689 620.874 21.6245 622.723 22.5548L622.408 23.1808C624.316 24.1403 626.131 25.1794 627.843 26.2905L628.224 25.7027C630.039 26.8804 631.74 28.1389 633.315 29.4698L632.863 30.0051C634.493 31.3814 635.983 32.8344 637.323 34.354L637.848 33.8907C639.278 35.5132 640.54 37.2126 641.618 38.9779L641.02 39.343C642.116 41.1388 643.016 43.0009 643.703 44.917L644.362 44.6806Z" stroke="url(#paint25_linear_1_687)" stroke-opacity="0.8" stroke-width="1.40155" stroke-dasharray="6 6"/>
<circle cx="588.5" cy="212.5" r="210.5" fill="url(#paint26_radial_1_687)" fill-opacity="0.3"/>
<path d="M400 155L0 155" stroke="url(#paint27_linear_1_687)" stroke-width="1.5"/>
<path d="M400 152L0 152" stroke="url(#paint28_linear_1_687)" stroke-width="1.5" stroke-dasharray="3.33 3.33"/>
<path d="M799 235L1179 235" stroke="url(#paint29_linear_1_687)" stroke-width="1.5"/>
<path d="M474 384L0 384" stroke="url(#paint30_linear_1_687)" stroke-width="1.5"/>
<path d="M786 479L1146 479" stroke="url(#paint31_linear_1_687)" stroke-width="1.5"/>
<defs>
<filter id="filter0_f_1_687" x="322" y="432" width="526" height="236" filterUnits="userSpaceOnUse" color-interpolation-filters="sRGB">
<feFlood flood-opacity="0" result="BackgroundImageFix"/>
<feBlend mode="normal" in="SourceGraphic" in2="BackgroundImageFix" result="shape"/>
<feGaussianBlur stdDeviation="15" result="effect1_foregroundBlur_1_687"/>
</filter>
<filter id="filter1_bi_1_687" x="301.711" y="381.71" width="566.579" height="276.579" filterUnits="userSpaceOnUse" color-interpolation-filters="sRGB">
<feFlood flood-opacity="0" result="BackgroundImageFix"/>
<feGaussianBlur in="BackgroundImageFix" stdDeviation="25.1448"/>
<feComposite in2="SourceAlpha" operator="in" result="effect1_backgroundBlur_1_687"/>
<feBlend mode="normal" in="SourceGraphic" in2="effect1_backgroundBlur_1_687" result="shape"/>
<feColorMatrix in="SourceAlpha" type="matrix" values="0 0 0 0 0 0 0 0 0 0 0 0 0 0 0 0 0 0 127 0" result="hardAlpha"/>
<feOffset dx="-2" dy="-2"/>
<feGaussianBlur stdDeviation="2"/>
<feComposite in2="hardAlpha" operator="arithmetic" k2="-1" k3="1"/>
<feColorMatrix type="matrix" values="0 0 0 0 0 0 0 0 0 0 0 0 0 0 0 0 0 0 0.25 0"/>
<feBlend mode="normal" in2="shape" result="effect2_innerShadow_1_687"/>
</filter>
<filter id="filter2_i_1_687" x="382" y="396" width="405" height="154" filterUnits="userSpaceOnUse" color-interpolation-filters="sRGB">
<feFlood flood-opacity="0" result="BackgroundImageFix"/>
<feBlend mode="normal" in="SourceGraphic" in2="BackgroundImageFix" result="shape"/>
<feColorMatrix in="SourceAlpha" type="matrix" values="0 0 0 0 0 0 0 0 0 0 0 0 0 0 0 0 0 0 127 0" result="hardAlpha"/>
<feOffset dx="-1" dy="-1"/>
<feGaussianBlur stdDeviation="2"/>
<feComposite in2="hardAlpha" operator="arithmetic" k2="-1" k3="1"/>
<feColorMatrix type="matrix" values="0 0 0 0 0 0 0 0 0 0 0 0 0 0 0 0 0 0 0.25 0"/>
<feBlend mode="normal" in2="shape" result="effect1_innerShadow_1_687"/>
</filter>
<filter id="filter3_i_1_687" x="417" y="364" width="335" height="127" filterUnits="userSpaceOnUse" color-interpolation-filters="sRGB">
<feFlood flood-opacity="0" result="BackgroundImageFix"/>
<feBlend mode="normal" in="SourceGraphic" in2="BackgroundImageFix" result="shape"/>
<feColorMatrix in="SourceAlpha" type="matrix" values="0 0 0 0 0 0 0 0 0 0 0 0 0 0 0 0 0 0 127 0" result="hardAlpha"/>
<feOffset dx="-1" dy="-1"/>
<feGaussianBlur stdDeviation="2"/>
<feComposite in2="hardAlpha" operator="arithmetic" k2="-1" k3="1"/>
<feColorMatrix type="matrix" values="0 0 0 0 0 0 0 0 0 0 0 0 0 0 0 0 0 0 0.25 0"/>
<feBlend mode="normal" in2="shape" result="effect1_innerShadow_1_687"/>
</filter>
<filter id="filter4_d_1_687" x="408.984" y="193.386" width="360.031" height="236.031" filterUnits="userSpaceOnUse" color-interpolation-filters="sRGB">
<feFlood flood-opacity="0" result="BackgroundImageFix"/>
<feColorMatrix in="SourceAlpha" type="matrix" values="0 0 0 0 0 0 0 0 0 0 0 0 0 0 0 0 0 0 127 0" result="hardAlpha"/>
<feOffset dy="1.40155"/>
<feGaussianBlur stdDeviation="7.00775"/>
<feComposite in2="hardAlpha" operator="out"/>
<feColorMatrix type="matrix" values="0 0 0 0 0.440043 0 0 0 0 0.20092 0 0 0 0 0.679167 0 0 0 0.3 0"/>
<feBlend mode="normal" in2="BackgroundImageFix" result="effect1_dropShadow_1_687"/>
<feBlend mode="normal" in="SourceGraphic" in2="effect1_dropShadow_1_687" result="shape"/>
</filter>
<filter id="filter5_d_1_687" x="377.992" y="49.3938" width="421.016" height="249.016" filterUnits="userSpaceOnUse" color-interpolation-filters="sRGB">
<feFlood flood-opacity="0" result="BackgroundImageFix"/>
<feColorMatrix in="SourceAlpha" type="matrix" values="0 0 0 0 0 0 0 0 0 0 0 0 0 0 0 0 0 0 127 0" result="hardAlpha"/>
<feOffset dy="1.40155"/>
<feGaussianBlur stdDeviation="3.50388"/>
<feComposite in2="hardAlpha" operator="out"/>
<feColorMatrix type="matrix" values="0 0 0 0 0.369333 0 0 0 0 0.0916667 0 0 0 0 0.5 0 0 0 0.15 0"/>
<feBlend mode="normal" in2="BackgroundImageFix" result="effect1_dropShadow_1_687"/>
<feBlend mode="normal" in="SourceGraphic" in2="effect1_dropShadow_1_687" result="shape"/>
</filter>
<filter id="filter6_d_1_687" x="421.89" y="0.889925" width="337.023" height="225.023" filterUnits="userSpaceOnUse" color-interpolation-filters="sRGB">
<feFlood flood-opacity="0" result="BackgroundImageFix"/>
<feColorMatrix in="SourceAlpha" type="matrix" values="0 0 0 0 0 0 0 0 0 0 0 0 0 0 0 0 0 0 127 0" result="hardAlpha"/>
<feOffset dx="1.40155" dy="1.40155"/>
<feGaussianBlur stdDeviation="5.25581"/>
<feComposite in2="hardAlpha" operator="out"/>
<feColorMatrix type="matrix" values="0 0 0 0 0.440043 0 0 0 0 0.20092 0 0 0 0 0.679167 0 0 0 0.2 0"/>
<feBlend mode="normal" in2="BackgroundImageFix" result="effect1_dropShadow_1_687"/>
<feBlend mode="normal" in="SourceGraphic" in2="effect1_dropShadow_1_687" result="shape"/>
</filter>
<radialGradient id="paint0_radial_1_687" cx="0" cy="0" r="1" gradientUnits="userSpaceOnUse" gradientTransform="translate(408.771 594.686) rotate(-5.71832) scale(448.487 179.493)">
<stop offset="0.239373" stop-color="white"/>
<stop offset="0.410099" stop-color="#FFCEF1"/>
<stop offset="0.67492" stop-color="#B6B9FF"/>
<stop offset="0.861176" stop-color="#FFA8E7"/>
<stop offset="1" stop-color="white"/>
</radialGradient>
<radialGradient id="paint1_radial_1_687" cx="0" cy="0" r="1" gradientUnits="userSpaceOnUse" gradientTransform="translate(805.742 618.02) rotate(-148.577) scale(163.577 162.711)">
<stop stop-color="#3F52FF"/>
<stop offset="1" stop-color="#3F52FF" stop-opacity="0"/>
</radialGradient>
<radialGradient id="paint2_radial_1_687" cx="0" cy="0" r="1" gradientUnits="userSpaceOnUse" gradientTransform="translate(408.771 564.686) rotate(-5.71832) scale(448.487 179.493)">
<stop offset="0.239373" stop-color="white"/>
<stop offset="0.410099" stop-color="#FFCEF1"/>
<stop offset="0.67492" stop-color="#B6B9FF"/>
<stop offset="0.861176" stop-color="#FFA8E7"/>
<stop offset="1" stop-color="white"/>
</radialGradient>
<radialGradient id="paint3_radial_1_687" cx="0" cy="0" r="1" gradientUnits="userSpaceOnUse" gradientTransform="translate(805.742 588.02) rotate(-148.577) scale(163.577 162.711)">
<stop stop-color="#3F52FF"/>
<stop offset="1" stop-color="#3F52FF" stop-opacity="0"/>
</radialGradient>
<radialGradient id="paint4_radial_1_687" cx="0" cy="0" r="1" gradientUnits="userSpaceOnUse" gradientTransform="translate(737.782 512.347) rotate(-174.266) scale(388.827 156.032)">
<stop offset="0.239373" stop-color="white"/>
<stop offset="0.410099" stop-color="#FFCEF1"/>
<stop offset="0.67492" stop-color="#B6B9FF"/>
<stop offset="0.861176" stop-color="#FFA8E7"/>
<stop offset="1" stop-color="white"/>
</radialGradient>
<radialGradient id="paint5_radial_1_687" cx="0" cy="0" r="1" gradientUnits="userSpaceOnUse" gradientTransform="translate(393.627 532.631) rotate(-31.4926) scale(141.919 141.342)">
<stop stop-color="#3F52FF"/>
<stop offset="1" stop-color="#3F52FF" stop-opacity="0"/>
</radialGradient>
<radialGradient id="paint6_radial_1_687" cx="0" cy="0" r="1" gradientUnits="userSpaceOnUse" gradientTransform="translate(458.69 459.991) rotate(-5.71175) scale(321.444 128.502)">
<stop offset="0.239373" stop-color="white"/>
<stop offset="0.410099" stop-color="#FFCEF1"/>
<stop offset="0.67492" stop-color="#B6B9FF"/>
<stop offset="0.861176" stop-color="#FFA8E7"/>
<stop offset="1" stop-color="white"/>
</radialGradient>
<radialGradient id="paint7_radial_1_687" cx="0" cy="0" r="1" gradientUnits="userSpaceOnUse" gradientTransform="translate(743.215 476.696) rotate(-148.606) scale(117.205 116.523)">
<stop stop-color="#3F52FF"/>
<stop offset="1" stop-color="#3F52FF" stop-opacity="0"/>
</radialGradient>
<linearGradient id="paint8_linear_1_687" x1="485" y1="187" x2="485" y2="265" gradientUnits="userSpaceOnUse">
<stop stop-color="#B517FF"/>
<stop offset="1" stop-color="white" stop-opacity="0"/>
</linearGradient>
<linearGradient id="paint9_linear_1_687" x1="669.5" y1="258" x2="669.5" y2="299" gradientUnits="userSpaceOnUse">
<stop stop-color="#B517FF"/>
<stop offset="1" stop-color="white" stop-opacity="0"/>
</linearGradient>
<linearGradient id="paint10_linear_1_687" x1="701" y1="144" x2="701" y2="180" gradientUnits="userSpaceOnUse">
<stop stop-color="#B517FF"/>
<stop offset="1" stop-color="white" stop-opacity="0"/>
</linearGradient>
<linearGradient id="paint11_linear_1_687" x1="589" y1="206" x2="589" y2="414" gradientUnits="userSpaceOnUse">
<stop stop-color="#13154D"/>
<stop offset="1" stop-color="#8E92EE" stop-opacity="0"/>
</linearGradient>
<linearGradient id="paint12_linear_1_687" x1="671.446" y1="323.112" x2="680.842" y2="428.031" gradientUnits="userSpaceOnUse">
<stop stop-color="white" stop-opacity="0"/>
<stop offset="1" stop-color="white"/>
</linearGradient>
<radialGradient id="paint13_radial_1_687" cx="0" cy="0" r="1" gradientUnits="userSpaceOnUse" gradientTransform="translate(378 289.074) rotate(-19.6638) scale(447.071)">
<stop offset="0.21875" stop-color="white" stop-opacity="0.83"/>
<stop offset="0.48315" stop-color="#FF8FED" stop-opacity="0.5"/>
<stop offset="0.627037" stop-color="#220C7A" stop-opacity="0.5"/>
</radialGradient>
<linearGradient id="paint14_linear_1_687" x1="399.811" y1="273.11" x2="790.255" y2="229.035" gradientUnits="userSpaceOnUse">
<stop stop-color="white"/>
<stop offset="1" stop-color="#12178E" stop-opacity="0.4"/>
</linearGradient>
<linearGradient id="paint15_linear_1_687" x1="621.708" y1="419.069" x2="559.391" y2="270.38" gradientUnits="userSpaceOnUse">
<stop offset="0.0011346" stop-color="white"/>
<stop offset="1" stop-color="white" stop-opacity="0"/>
</linearGradient>
<radialGradient id="paint16_radial_1_687" cx="0" cy="0" r="1" gradientUnits="userSpaceOnUse" gradientTransform="translate(471.01 292.217) rotate(-14.8494) scale(309.103)">
<stop offset="0.239373" stop-color="white"/>
<stop offset="0.410099" stop-color="#FFCEF1"/>
<stop offset="0.67492" stop-color="#B6B9FF"/>
<stop offset="0.861176" stop-color="#FFA8E7"/>
<stop offset="1" stop-color="white"/>
</radialGradient>
<radialGradient id="paint17_radial_1_687" cx="0" cy="0" r="1" gradientUnits="userSpaceOnUse" gradientTransform="translate(736.793 333.58) rotate(-121.724) scale(177.736)">
<stop stop-color="#3F52FF"/>
<stop offset="1" stop-color="#3F52FF" stop-opacity="0"/>
</radialGradient>
<linearGradient id="paint18_linear_1_687" x1="389.382" y1="164.401" x2="791.999" y2="176.909" gradientUnits="userSpaceOnUse">
<stop stop-color="white"/>
<stop offset="1" stop-color="#5653FF" stop-opacity="0.2"/>
</linearGradient>
<linearGradient id="paint19_linear_1_687" x1="561.702" y1="372.96" x2="549.048" y2="181.294" gradientUnits="userSpaceOnUse">
<stop stop-color="white"/>
<stop offset="1" stop-color="white" stop-opacity="0"/>
</linearGradient>
<linearGradient id="paint20_linear_1_687" x1="589" y1="10" x2="589" y2="214" gradientUnits="userSpaceOnUse">
<stop stop-color="#13154D" stop-opacity="0.5"/>
<stop offset="1" stop-color="#8E92EE" stop-opacity="0"/>
</linearGradient>
<linearGradient id="paint21_linear_1_687" x1="616.616" y1="258.289" x2="637.521" y2="32.7039" gradientUnits="userSpaceOnUse">
<stop stop-color="white"/>
<stop offset="1" stop-color="white" stop-opacity="0"/>
</linearGradient>
<linearGradient id="paint22_linear_1_687" x1="589.5" y1="10" x2="589.5" y2="143" gradientUnits="userSpaceOnUse">
<stop stop-color="#13154D"/>
<stop offset="1" stop-color="#8E92EE" stop-opacity="0"/>
</linearGradient>
<linearGradient id="paint23_linear_1_687" x1="628.91" y1="240.851" x2="589.799" y2="9.94926" gradientUnits="userSpaceOnUse">
<stop stop-color="white"/>
<stop offset="1" stop-color="white" stop-opacity="0"/>
</linearGradient>
<linearGradient id="paint24_linear_1_687" x1="589" y1="15" x2="589" y2="93" gradientUnits="userSpaceOnUse">
<stop stop-color="#13154D"/>
<stop offset="1" stop-color="#8E92EE" stop-opacity="0"/>
</linearGradient>
<linearGradient id="paint25_linear_1_687" x1="619.778" y1="175.236" x2="589.332" y2="14.937" gradientUnits="userSpaceOnUse">
<stop stop-color="white"/>
<stop offset="1" stop-color="white" stop-opacity="0"/>
</linearGradient>
<radialGradient id="paint26_radial_1_687" cx="0" cy="0" r="1" gradientUnits="userSpaceOnUse" gradientTransform="translate(378 289.074) rotate(-19.6638) scale(447.071)">
<stop offset="0.249306" stop-color="white"/>
<stop offset="0.48315" stop-color="#FF8FED" stop-opacity="0.5"/>
<stop offset="0.627037" stop-color="#220C7A" stop-opacity="0"/>
</radialGradient>
<linearGradient id="paint27_linear_1_687" x1="315.487" y1="155.789" x2="315.484" y2="154.736" gradientUnits="userSpaceOnUse">
<stop stop-color="white"/>
<stop offset="1" stop-color="#9A98FF" stop-opacity="0"/>
</linearGradient>
<linearGradient id="paint28_linear_1_687" x1="315.487" y1="152.789" x2="315.484" y2="151.736" gradientUnits="userSpaceOnUse">
<stop stop-color="white"/>
<stop offset="1" stop-color="#9A98FF" stop-opacity="0"/>
</linearGradient>
<linearGradient id="paint29_linear_1_687" x1="879.287" y1="234.211" x2="879.29" y2="235.264" gradientUnits="userSpaceOnUse">
<stop stop-color="white"/>
<stop offset="1" stop-color="#9A98FF" stop-opacity="0"/>
</linearGradient>
<linearGradient id="paint30_linear_1_687" x1="373.852" y1="384.789" x2="373.85" y2="383.736" gradientUnits="userSpaceOnUse">
<stop stop-color="white"/>
<stop offset="1" stop-color="#9A98FF" stop-opacity="0"/>
</linearGradient>
<linearGradient id="paint31_linear_1_687" x1="862.062" y1="478.211" x2="862.065" y2="479.264" gradientUnits="userSpaceOnUse">
<stop stop-color="white"/>
<stop offset="1" stop-color="#9A98FF" stop-opacity="0"/>
</linearGradient>
</defs>
</svg>
