<svg width="32" height="32" viewBox="0 0 32 32" fill="none" xmlns="http://www.w3.org/2000/svg">
<path d="M20 12L19 12C19 12.5523 19.4477 13 20 13L20 12ZM24 11L20 11L20 13L24 13L24 11ZM21 12L21 8L19 8L19 12L21 12ZM21 8C21 6.34315 22.3431 5 24 5L24 3C21.2386 3 19 5.23858 19 8L21 8ZM27 8C27 9.65685 25.6569 11 24 11L24 13C26.7614 13 29 10.7614 29 8L27 8ZM29 8C29 5.23858 26.7614 3 24 3L24 5C25.6569 5 27 6.34315 27 8L29 8Z" fill="white"/>
<path d="M20 20L20 19C19.4477 19 19 19.4477 19 20L20 20ZM24 19L20 19L20 21L24 21L24 19ZM19 20L19 24L21 24L21 20L19 20ZM19 24C19 26.7614 21.2386 29 24 29L24 27C22.3431 27 21 25.6569 21 24L19 24ZM29 24C29 21.2386 26.7614 19 24 19L24 21C25.6569 21 27 22.3431 27 24L29 24ZM27 24C27 25.6569 25.6569 27 24 27L24 29C26.7614 29 29 26.7614 29 24L27 24Z" fill="white"/>
<path d="M12 11.9999L12 19.9999L20 19.9999L20 11.9999L12 11.9999Z" stroke="white" stroke-width="2" stroke-linecap="round" stroke-linejoin="round"/>
<path d="M12 12L12 13C12.5523 13 13 12.5523 13 12L12 12ZM8 13L12 13L12 11L8 11L8 13ZM13 12L13 8L11 8L11 12L13 12ZM13 8C13 5.23858 10.7614 3 8 3L8 5C9.65685 5 11 6.34315 11 8L13 8ZM3 8C3 10.7614 5.23858 13 8 13L8 11C6.34315 11 5 9.65685 5 8L3 8ZM5 8C5 6.34314 6.34315 5 8 5L8 3C5.23858 3 3 5.23858 3 8L5 8Z" fill="white"/>
<path d="M12 20L13 20C13 19.4477 12.5523 19 12 19L12 20ZM8 21L12 21L12 19L8 19L8 21ZM11 20L11 24L13 24L13 20L11 20ZM11 24C11 25.6569 9.65685 27 8 27L8 29C10.7614 29 13 26.7614 13 24L11 24ZM5 24C5 22.3431 6.34315 21 8 21L8 19C5.23858 19 3 21.2386 3 24L5 24ZM3 24C3 26.7614 5.23858 29 8 29L8 27C6.34315 27 5 25.6569 5 24L3 24Z" fill="white"/>
</svg>
