<svg width="15" height="27" viewBox="0 0 15 27" fill="none" xmlns="http://www.w3.org/2000/svg">
<path d="M14.3 18.54C14.3 20.1 13.77 21.41 12.71 22.47C11.65 23.51 10.28 24.12 8.6 24.3V27H6.8V24.33C5.18 24.23 3.8 23.8 2.66 23.04C1.52 22.28 0.7 21.26 0.2 19.98L2 18.93C2.74 20.97 4.34 22.09 6.8 22.29V14.01C5.9 13.69 5.17 13.4 4.61 13.14C4.07 12.88 3.51 12.53 2.93 12.09C2.35 11.65 1.92 11.11 1.64 10.47C1.38 9.83 1.25 9.08 1.25 8.22C1.25 6.66 1.77 5.39 2.81 4.41C3.87 3.41 5.2 2.83 6.8 2.67V-3.57628e-07H8.6V2.7C9.78 2.84 10.83 3.24 11.75 3.9C12.67 4.56 13.37 5.45 13.85 6.57L12.08 7.56C11.44 5.96 10.28 5.03 8.6 4.77V12.57C9.48 12.87 10.21 13.16 10.79 13.44C11.37 13.72 11.95 14.09 12.53 14.55C13.13 15.01 13.57 15.57 13.85 16.23C14.15 16.89 14.3 17.66 14.3 18.54ZM3.35 8.22C3.35 9.14 3.63 9.87 4.19 10.41C4.75 10.95 5.62 11.45 6.8 11.91V4.74C5.76 4.86 4.92 5.23 4.28 5.85C3.66 6.45 3.35 7.24 3.35 8.22ZM8.6 22.26C9.72 22.1 10.6 21.69 11.24 21.03C11.88 20.37 12.2 19.54 12.2 18.54C12.2 17.56 11.9 16.79 11.3 16.23C10.7 15.65 9.8 15.12 8.6 14.64V22.26Z" fill="white"/>
</svg>
