<svg width="34" height="34" viewBox="0 0 34 34" fill="none" xmlns="http://www.w3.org/2000/svg">
<path d="M24.0833 28.3333C24.0833 27.5509 24.7176 26.9166 25.5 26.9166C26.2824 26.9166 26.9166 27.5509 26.9166 28.3333C26.9166 29.1157 26.2824 29.75 25.5 29.75C24.7176 29.75 24.0833 29.1157 24.0833 28.3333Z" stroke="white" stroke-width="2" stroke-linecap="round" stroke-linejoin="round"/>
<path d="M9.91669 28.3333C9.91669 27.5509 10.551 26.9166 11.3334 26.9166C12.1158 26.9166 12.75 27.5509 12.75 28.3333C12.75 29.1157 12.1158 29.75 11.3334 29.75C10.551 29.75 9.91669 29.1157 9.91669 28.3333Z" stroke="white" stroke-width="2" stroke-linecap="round" stroke-linejoin="round"/>
<path d="M4.25 4.25012H5.3376C6.02081 4.25012 6.60669 4.73774 6.73072 5.4096L9.91667 22.6668" stroke="white" stroke-width="2" stroke-linecap="round" stroke-linejoin="round"/>
<path d="M7.79163 8.5H27.9691C28.8802 8.5 29.5544 9.34751 29.3495 10.2352L26.7341 21.5686C26.5858 22.2113 26.0134 22.6667 25.3538 22.6667H9.91663" stroke="white" stroke-width="2" stroke-linecap="round" stroke-linejoin="round"/>
</svg>
