<svg width="70" height="73" viewBox="0 0 70 73" fill="none" xmlns="http://www.w3.org/2000/svg">
<g filter="url(#filter0_i_1_1035)">
<path fill-rule="evenodd" clip-rule="evenodd" d="M69.5274 1.16607C69.6901 1.32876 69.7972 1.53871 69.8334 1.76592C70.2822 7.0726 69.8246 12.417 68.48 17.5701L53.2653 2.19158C58.3724 0.861006 63.669 0.410702 68.9275 0.860016C69.1547 0.896258 69.3647 1.00338 69.5274 1.16607ZM30.7269 16.9153L15.9923 40.4687C15.8606 40.6782 15.804 40.9263 15.8317 41.1722C15.8595 41.4181 15.97 41.6473 16.1451 41.8221L28.8714 54.5484C28.9725 54.6515 29.093 54.7336 29.226 54.7898C29.3591 54.846 29.5019 54.8752 29.6463 54.8758C29.8523 54.877 30.0539 54.8162 30.2248 54.7012L53.8546 39.9012C60.5158 34.9136 65.4134 27.9324 67.836 19.9714L50.864 2.85749C42.8237 5.27496 35.7675 10.2009 30.7269 16.9153Z" fill="url(#paint0_linear_1_1035)"/>
</g>
<g filter="url(#filter1_bdiii_1_1035)">
<path d="M-nan -nanL18.1303 50.8809L12.6731 56.3381C12.5708 56.4396 12.4896 56.5603 12.4342 56.6933C12.3787 56.8263 12.3502 56.9689 12.3502 57.113C12.3502 57.2571 12.3787 57.3998 12.4342 57.5328C12.4896 57.6658 12.5708 57.7865 12.6731 57.8879C12.7751 57.9891 12.896 58.0691 13.029 58.1235C13.162 58.1778 13.3044 58.2053 13.448 58.2045C13.7343 58.2033 14.0087 58.0896 14.212 57.8879L19.6692 52.4307C19.7715 52.3293 19.8527 52.2085 19.9081 52.0755C19.9636 51.9425 19.9921 51.7999 19.9921 51.6558C19.9921 51.5117 19.9636 51.369 19.9081 51.236C19.8527 51.103 19.7715 50.9823 19.6692 50.8809C19.4647 50.6776 19.1881 50.5635 18.8998 50.5635C18.6114 50.5635 18.3348 50.6776 18.1303 50.8809L-nan -nanZ" fill="url(#paint1_linear_1_1035)" fill-opacity="0.21"/>
<path d="M-nan -nanL18.1303 50.8809L12.6731 56.3381C12.5708 56.4396 12.4896 56.5603 12.4342 56.6933C12.3787 56.8263 12.3502 56.9689 12.3502 57.113C12.3502 57.2571 12.3787 57.3998 12.4342 57.5328C12.4896 57.6658 12.5708 57.7865 12.6731 57.8879C12.7751 57.9891 12.896 58.0691 13.029 58.1235C13.162 58.1778 13.3044 58.2053 13.448 58.2045C13.7343 58.2033 14.0087 58.0896 14.212 57.8879L19.6692 52.4307C19.7715 52.3293 19.8527 52.2085 19.9081 52.0755C19.9636 51.9425 19.9921 51.7999 19.9921 51.6558C19.9921 51.5117 19.9636 51.369 19.9081 51.236C19.8527 51.103 19.7715 50.9823 19.6692 50.8809C19.4647 50.6776 19.1881 50.5635 18.8998 50.5635C18.6114 50.5635 18.3348 50.6776 18.1303 50.8809L-nan -nanZ" fill="#D7FFC2" fill-opacity="0.1"/>
</g>
<g filter="url(#filter2_bdii_1_1035)">
<path fill-rule="evenodd" clip-rule="evenodd" d="M17.7478 40.975C17.7562 40.9666 17.7575 40.9535 17.7509 40.9436C17.7447 40.9343 17.7454 40.922 17.7529 40.9136C17.8484 40.8059 17.9644 40.718 18.0941 40.6553C18.2295 40.5898 18.377 40.5529 18.5273 40.5471C18.6776 40.5413 18.8275 40.5667 18.9676 40.6215C19.1076 40.6764 19.2349 40.7596 19.3412 40.866C19.4476 40.9724 19.5308 41.0996 19.5857 41.2396C19.6406 41.3797 19.6659 41.5296 19.6601 41.6799C19.6543 41.8302 19.6175 41.9777 19.5519 42.1131C19.4864 42.2485 19.3936 42.3689 19.2794 42.4668L16.8455 44.9007C16.6521 45.1158 16.3812 45.2454 16.0924 45.2609C15.8765 45.26 15.6658 45.1951 15.4868 45.0744C15.3078 44.9537 15.1686 44.7827 15.0868 44.5829C15.0051 44.3832 14.9844 44.1636 15.0274 43.9521C15.0703 43.7406 15.1751 43.5465 15.3284 43.3945L17.7478 40.975ZM6.06145 62.7458L13.5706 55.2039C13.7761 54.994 14.0566 54.8744 14.3503 54.8713C14.6441 54.8682 14.927 54.982 15.1368 55.1875C15.3467 55.393 15.4663 55.6735 15.4694 55.9672C15.4725 56.261 15.3587 56.5439 15.1532 56.7537L7.60039 64.2956C7.39487 64.4997 7.1167 64.6138 6.82706 64.6128C6.53743 64.6117 6.26007 64.4957 6.056 64.2902C5.85192 64.0847 5.73785 63.8065 5.73887 63.5168C5.73989 63.2272 5.85593 62.9499 6.06145 62.7458ZM22.1865 47.321C22.1931 47.3309 22.1918 47.3441 22.1834 47.3525L19.7639 49.7719C19.6106 49.924 19.5059 50.118 19.4629 50.3295C19.4199 50.5411 19.4406 50.7606 19.5224 50.9604C19.6042 51.1601 19.7434 51.3312 19.9223 51.4518C20.1013 51.5725 20.3121 51.6374 20.5279 51.6383C20.8168 51.6228 21.0876 51.4933 21.281 51.2781L23.7149 48.8442C23.8292 48.7464 23.922 48.626 23.9875 48.4906C24.053 48.3551 24.0898 48.2077 24.0956 48.0573C24.1014 47.907 24.0761 47.7571 24.0212 47.6171C23.9664 47.477 23.8831 47.3498 23.7768 47.2434C23.6704 47.1371 23.5432 47.0538 23.4031 46.999C23.2631 46.9441 23.1132 46.9188 22.9629 46.9246C22.8126 46.9304 22.6651 46.9672 22.5297 47.0327C22.3999 47.0955 22.284 47.1833 22.1884 47.291C22.181 47.2994 22.1803 47.3117 22.1865 47.321ZM27.9647 51.1908C27.9727 51.1825 27.9855 51.1812 27.995 51.1876C28.0045 51.1939 28.0171 51.1926 28.0253 51.1848C28.2293 50.9893 28.5015 50.8803 28.7846 50.8813C29.0743 50.8823 29.3516 50.9984 29.5557 51.2039C29.7598 51.4094 29.8738 51.6876 29.8728 51.9772C29.8718 52.2668 29.7558 52.5442 29.5502 52.7483L27.1163 55.1822C26.913 55.3838 26.6386 55.4975 26.3523 55.4987C26.2087 55.4996 26.0663 55.472 25.9333 55.4177C25.8003 55.3634 25.6794 55.2834 25.5774 55.1822C25.4751 55.0807 25.3939 54.96 25.3385 54.827C25.283 54.694 25.2545 54.5514 25.2545 54.4073C25.2545 54.2632 25.283 54.1205 25.3385 53.9875C25.3939 53.8545 25.4751 53.7338 25.5774 53.6323L27.9647 51.1908ZM20.8288 58.3361L16.343 62.811C16.2407 62.9125 16.1595 63.0332 16.1041 63.1662C16.0487 63.2992 16.0201 63.4419 16.0201 63.586C16.0201 63.7301 16.0487 63.8727 16.1041 64.0057C16.1595 64.1387 16.2407 64.2594 16.343 64.3609C16.445 64.4621 16.5659 64.5421 16.6989 64.5964C16.8319 64.6507 16.9743 64.6783 17.1179 64.6774C17.2616 64.6783 17.404 64.6507 17.5369 64.5964C17.6699 64.5421 17.7909 64.4621 17.8928 64.3609L22.3678 59.8751C22.5466 59.6663 22.64 59.3977 22.6294 59.123C22.6188 58.8483 22.5049 58.5877 22.3105 58.3933C22.1162 58.199 21.8556 58.0851 21.5809 58.0745C21.3062 58.0639 21.0376 58.1573 20.8288 58.3361ZM4.64865 53.5847L9.1345 49.1098C9.34329 48.931 9.61187 48.8376 9.88656 48.8482C10.1613 48.8588 10.4218 48.9727 10.6162 49.167C10.8106 49.3614 10.9245 49.622 10.9351 49.8967C10.9457 50.1714 10.8522 50.44 10.6734 50.6488L6.19851 55.1346C6.09652 55.2358 5.97557 55.3158 5.84259 55.3701C5.70961 55.4244 5.56722 55.452 5.42358 55.4511C5.27994 55.452 5.13755 55.4244 5.00457 55.3701C4.87159 55.3158 4.75064 55.2358 4.64865 55.1346C4.54635 55.0331 4.46516 54.9124 4.40975 54.7794C4.35433 54.6464 4.32581 54.5038 4.32581 54.3597C4.32581 54.2156 4.35433 54.0729 4.40975 53.9399C4.46516 53.8069 4.54635 53.6862 4.64865 53.5847Z" fill="url(#paint2_linear_1_1035)" fill-opacity="0.1"/>
</g>
<g filter="url(#filter3_biii_1_1035)">
<path fill-rule="evenodd" clip-rule="evenodd" d="M69.5274 1.16607C69.6901 1.32876 69.7972 1.53871 69.8334 1.76592C70.2822 7.0726 69.8246 12.417 68.48 17.5701L53.2653 2.19158C58.3724 0.861006 63.669 0.410702 68.9275 0.860016C69.1547 0.896258 69.3647 1.00338 69.5274 1.16607ZM30.7269 16.9153L15.9923 40.4687C15.8606 40.6782 15.804 40.9263 15.8317 41.1722C15.8595 41.4181 15.97 41.6473 16.1451 41.8221L28.8714 54.5484C28.9725 54.6515 29.093 54.7336 29.226 54.7898C29.3591 54.846 29.5019 54.8752 29.6463 54.8758C29.8523 54.877 30.0539 54.8162 30.2248 54.7012L53.8546 39.9012C60.5158 34.9136 65.4134 27.9324 67.836 19.9714L50.864 2.85749C42.8237 5.27496 35.7675 10.2009 30.7269 16.9153Z" fill="url(#paint3_linear_1_1035)"/>
</g>
<g filter="url(#filter4_biii_1_1035)">
<path d="M34.7419 50.6959C34.2398 51.1101 34.04 51.7834 34.1956 52.4155C35.4854 57.6558 34.7994 63.2028 32.2451 67.9853C32.1138 68.1985 32.0598 68.4503 32.0921 68.6986C32.1244 68.9469 32.2411 69.1765 32.4227 69.349C32.539 69.4567 32.6773 69.5377 32.8282 69.5865C32.979 69.6353 33.1386 69.6507 33.2959 69.6315C33.4774 69.6088 33.6502 69.5409 33.7985 69.434C40.246 64.81 53.674 53.3741 51.6814 39.5923C51.5136 38.4312 50.1465 37.9893 49.2415 38.7358L34.7419 50.6959Z" fill="url(#paint4_linear_1_1035)" fill-opacity="0.2"/>
</g>
<g filter="url(#filter5_biii_1_1035)">
<path d="M20.1141 37.3725C19.6916 37.8678 19.0151 38.0564 18.3857 37.8904C13.1674 36.5142 7.6098 37.1085 2.78578 39.5834C2.57045 39.7112 2.31773 39.761 2.07001 39.7246C1.82229 39.6882 1.59462 39.5677 1.42519 39.3833C1.31944 39.2652 1.24068 39.1256 1.19438 38.974C1.14809 38.8224 1.13537 38.6625 1.15711 38.5055C1.1828 38.3245 1.25356 38.1528 1.3629 38.0062C6.09286 31.6361 17.7491 18.3988 31.4961 20.6188C32.6542 20.8059 33.0735 22.18 32.3121 23.0726L20.1141 37.3725Z" fill="url(#paint5_linear_1_1035)" fill-opacity="0.3"/>
</g>
<g filter="url(#filter6_bdiii_1_1035)">
<path d="M-nan -nanL18.1323 50.8809L12.675 56.3381C12.5727 56.4396 12.4915 56.5603 12.4361 56.6933C12.3807 56.8263 12.3522 56.9689 12.3522 57.113C12.3522 57.2571 12.3807 57.3998 12.4361 57.5328C12.4915 57.6658 12.5727 57.7865 12.675 57.8879C12.777 57.9891 12.898 58.0691 13.0309 58.1235C13.1639 58.1778 13.3063 58.2053 13.4499 58.2045C13.7363 58.2033 14.0107 58.0896 14.214 57.8879L19.6712 52.4307C19.7735 52.3293 19.8547 52.2085 19.9101 52.0755C19.9655 51.9425 19.994 51.7999 19.994 51.6558C19.994 51.5117 19.9655 51.369 19.9101 51.236C19.8547 51.103 19.7735 50.9823 19.6712 50.8809C19.4667 50.6776 19.1901 50.5635 18.9017 50.5635C18.6134 50.5635 18.3367 50.6776 18.1323 50.8809L-nan -nanZ" fill="url(#paint6_linear_1_1035)" fill-opacity="0.21"/>
<path d="M-nan -nanL18.1323 50.8809L12.675 56.3381C12.5727 56.4396 12.4915 56.5603 12.4361 56.6933C12.3807 56.8263 12.3522 56.9689 12.3522 57.113C12.3522 57.2571 12.3807 57.3998 12.4361 57.5328C12.4915 57.6658 12.5727 57.7865 12.675 57.8879C12.777 57.9891 12.898 58.0691 13.0309 58.1235C13.1639 58.1778 13.3063 58.2053 13.4499 58.2045C13.7363 58.2033 14.0107 58.0896 14.214 57.8879L19.6712 52.4307C19.7735 52.3293 19.8547 52.2085 19.9101 52.0755C19.9655 51.9425 19.994 51.7999 19.994 51.6558C19.994 51.5117 19.9655 51.369 19.9101 51.236C19.8547 51.103 19.7735 50.9823 19.6712 50.8809C19.4667 50.6776 19.1901 50.5635 18.9017 50.5635C18.6134 50.5635 18.3367 50.6776 18.1323 50.8809L-nan -nanZ" fill="#D7FFC2" fill-opacity="0.1"/>
</g>
<g filter="url(#filter7_biiii_1_1035)">
<g filter="url(#filter8_bdii_1_1035)">
<path fill-rule="evenodd" clip-rule="evenodd" d="M17.7478 40.9751C17.7562 40.9667 17.7575 40.9535 17.7509 40.9436C17.7447 40.9343 17.7454 40.922 17.7529 40.9137C17.8484 40.8059 17.9644 40.7181 18.0941 40.6553C18.2295 40.5898 18.377 40.553 18.5273 40.5472C18.6776 40.5414 18.8275 40.5667 18.9676 40.6216C19.1076 40.6765 19.2349 40.7597 19.3412 40.8661C19.4476 40.9724 19.5308 41.0996 19.5857 41.2397C19.6406 41.3798 19.6659 41.5296 19.6601 41.68C19.6543 41.8303 19.6175 41.9778 19.5519 42.1132C19.4864 42.2486 19.3936 42.369 19.2794 42.4668L16.8455 44.9008C16.6521 45.1159 16.3812 45.2454 16.0924 45.2609C15.8765 45.26 15.6658 45.1951 15.4868 45.0745C15.3078 44.9538 15.1686 44.7828 15.0868 44.583C15.0051 44.3832 14.9844 44.1637 15.0274 43.9522C15.0703 43.7406 15.1751 43.5466 15.3284 43.3946L17.7478 40.9751ZM6.06148 62.7456L13.5706 55.2037C13.7762 54.9938 14.0566 54.8742 14.3504 54.8712C14.6441 54.8681 14.927 54.9818 15.1369 55.1873C15.3467 55.3929 15.4664 55.6733 15.4694 55.9671C15.4725 56.2608 15.3588 56.5437 15.1532 56.7536L7.60042 64.2955C7.3949 64.4995 7.11672 64.6136 6.82709 64.6126C6.53746 64.6116 6.2601 64.4955 6.05603 64.29C5.85195 64.0845 5.73788 63.8063 5.7389 63.5167C5.73992 63.227 5.85596 62.9497 6.06148 62.7456ZM22.1865 47.3211C22.1931 47.331 22.1918 47.3441 22.1834 47.3525L19.7639 49.772C19.6106 49.924 19.5059 50.1181 19.4629 50.3296C19.4199 50.5411 19.4406 50.7607 19.5224 50.9604C19.6042 51.1602 19.7434 51.3312 19.9223 51.4519C20.1013 51.5726 20.3121 51.6375 20.5279 51.6384C20.8168 51.6229 21.0876 51.4933 21.281 51.2782L23.7149 48.8443C23.8292 48.7464 23.922 48.626 23.9875 48.4906C24.053 48.3552 24.0898 48.2077 24.0956 48.0574C24.1014 47.9071 24.0761 47.7572 24.0212 47.6171C23.9664 47.4771 23.8831 47.3499 23.7768 47.2435C23.6704 47.1371 23.5432 47.0539 23.4031 46.999C23.2631 46.9442 23.1132 46.9188 22.9629 46.9246C22.8126 46.9304 22.6651 46.9673 22.5297 47.0328C22.3999 47.0955 22.284 47.1834 22.1884 47.2911C22.181 47.2995 22.1803 47.3118 22.1865 47.3211ZM27.9647 51.1908C27.9727 51.1826 27.9855 51.1813 27.995 51.1877C28.0045 51.194 28.0171 51.1927 28.0253 51.1848C28.2293 50.9893 28.5015 50.8804 28.7846 50.8814C29.0743 50.8824 29.3516 50.9984 29.5557 51.2039C29.7598 51.4095 29.8738 51.6876 29.8728 51.9773C29.8718 52.2669 29.7558 52.5443 29.5502 52.7483L27.1163 55.1823C26.913 55.3839 26.6386 55.4976 26.3523 55.4988C26.2087 55.4996 26.0663 55.4721 25.9333 55.4178C25.8003 55.3635 25.6794 55.2834 25.5774 55.1823C25.4751 55.0808 25.3939 54.9601 25.3385 54.8271C25.283 54.6941 25.2545 54.5514 25.2545 54.4073C25.2545 54.2633 25.283 54.1206 25.3385 53.9876C25.3939 53.8546 25.4751 53.7339 25.5774 53.6324L27.9647 51.1908ZM20.8288 58.3362L16.343 62.8111C16.2407 62.9126 16.1595 63.0333 16.1041 63.1663C16.0487 63.2993 16.0201 63.442 16.0201 63.586C16.0201 63.7301 16.0487 63.8728 16.1041 64.0058C16.1595 64.1388 16.2407 64.2595 16.343 64.361C16.445 64.4621 16.5659 64.5421 16.6989 64.5965C16.8319 64.6508 16.9743 64.6783 17.1179 64.6775C17.2616 64.6783 17.404 64.6508 17.5369 64.5965C17.6699 64.5421 17.7909 64.4621 17.8928 64.361L22.3678 59.8751C22.5466 59.6663 22.64 59.3977 22.6294 59.123C22.6188 58.8484 22.5049 58.5878 22.3105 58.3934C22.1162 58.199 21.8556 58.0852 21.5809 58.0745C21.3062 58.0639 21.0376 58.1574 20.8288 58.3362ZM4.64865 53.5848L9.1345 49.1099C9.34329 48.9311 9.61187 48.8376 9.88656 48.8482C10.1613 48.8589 10.4218 48.9727 10.6162 49.1671C10.8106 49.3615 10.9245 49.6221 10.9351 49.8967C10.9457 50.1714 10.8522 50.44 10.6734 50.6488L6.19851 55.1347C6.09652 55.2358 5.97557 55.3158 5.84259 55.3702C5.70961 55.4245 5.56722 55.452 5.42358 55.4512C5.27994 55.452 5.13755 55.4245 5.00457 55.3702C4.87159 55.3158 4.75064 55.2358 4.64865 55.1347C4.54635 55.0332 4.46516 54.9125 4.40975 54.7795C4.35433 54.6465 4.32581 54.5038 4.32581 54.3597C4.32581 54.2157 4.35433 54.073 4.40975 53.94C4.46516 53.807 4.54635 53.6863 4.64865 53.5848Z" fill="url(#paint7_linear_1_1035)"/>
</g>
</g>
<g filter="url(#filter9_biiii_1_1035)">
<circle cx="49.39" cy="20.2014" r="8.2439" fill="url(#paint8_linear_1_1035)" fill-opacity="0.21"/>
<circle cx="49.39" cy="20.2014" r="8.2439" fill="#F18271" fill-opacity="0.26"/>
</g>
<g filter="url(#filter10_biiii_1_1035)">
<circle cx="49.39" cy="20.2014" r="8.2439" fill="url(#paint9_linear_1_1035)"/>
</g>
<defs>
<filter id="filter0_i_1_1035" x="15.8248" y="-0.280054" width="57.0899" height="55.1559" filterUnits="userSpaceOnUse" color-interpolation-filters="sRGB">
<feFlood flood-opacity="0" result="BackgroundImageFix"/>
<feBlend mode="normal" in="SourceGraphic" in2="BackgroundImageFix" result="shape"/>
<feColorMatrix in="SourceAlpha" type="matrix" values="0 0 0 0 0 0 0 0 0 0 0 0 0 0 0 0 0 0 127 0" result="hardAlpha"/>
<feOffset dx="2.91438" dy="-0.97146"/>
<feGaussianBlur stdDeviation="3.2382"/>
<feComposite in2="hardAlpha" operator="arithmetic" k2="-1" k3="1"/>
<feColorMatrix type="matrix" values="0 0 0 0 0 0 0 0 0 0 0 0 0 0 0 0 0 0 0.17 0"/>
<feBlend mode="normal" in2="shape" result="effect1_innerShadow_1_1035"/>
</filter>
<filter id="filter1_bdiii_1_1035" x="5.87382" y="44.0871" width="23.509" height="22.2129" filterUnits="userSpaceOnUse" color-interpolation-filters="sRGB">
<feFlood flood-opacity="0" result="BackgroundImageFix"/>
<feGaussianBlur in="BackgroundImageFix" stdDeviation="3.2382"/>
<feComposite in2="SourceAlpha" operator="in" result="effect1_backgroundBlur_1_1035"/>
<feColorMatrix in="SourceAlpha" type="matrix" values="0 0 0 0 0 0 0 0 0 0 0 0 0 0 0 0 0 0 127 0" result="hardAlpha"/>
<feOffset dx="2.91438" dy="1.6191"/>
<feGaussianBlur stdDeviation="3.2382"/>
<feColorMatrix type="matrix" values="0 0 0 0 0.0690278 0 0 0 0 0.295833 0 0 0 0 0.11166 0 0 0 0.08 0"/>
<feBlend mode="normal" in2="effect1_backgroundBlur_1_1035" result="effect2_dropShadow_1_1035"/>
<feBlend mode="normal" in="SourceGraphic" in2="effect2_dropShadow_1_1035" result="shape"/>
<feColorMatrix in="SourceAlpha" type="matrix" values="0 0 0 0 0 0 0 0 0 0 0 0 0 0 0 0 0 0 127 0" result="hardAlpha"/>
<feOffset dx="-3.2382" dy="3.2382"/>
<feGaussianBlur stdDeviation="1.6191"/>
<feComposite in2="hardAlpha" operator="arithmetic" k2="-1" k3="1"/>
<feColorMatrix type="matrix" values="0 0 0 0 1 0 0 0 0 1 0 0 0 0 1 0 0 0 0.15 0"/>
<feBlend mode="normal" in2="shape" result="effect3_innerShadow_1_1035"/>
<feColorMatrix in="SourceAlpha" type="matrix" values="0 0 0 0 0 0 0 0 0 0 0 0 0 0 0 0 0 0 127 0" result="hardAlpha"/>
<feOffset dy="-3.2382"/>
<feGaussianBlur stdDeviation="1.6191"/>
<feComposite in2="hardAlpha" operator="arithmetic" k2="-1" k3="1"/>
<feColorMatrix type="matrix" values="0 0 0 0 0.156863 0 0 0 0 0.67451 0 0 0 0 0.25098 0 0 0 0.3 0"/>
<feBlend mode="normal" in2="effect3_innerShadow_1_1035" result="effect4_innerShadow_1_1035"/>
<feColorMatrix in="SourceAlpha" type="matrix" values="0 0 0 0 0 0 0 0 0 0 0 0 0 0 0 0 0 0 127 0" result="hardAlpha"/>
<feOffset dx="-0.97146" dy="1.94292"/>
<feGaussianBlur stdDeviation="2.42865"/>
<feComposite in2="hardAlpha" operator="arithmetic" k2="-1" k3="1"/>
<feColorMatrix type="matrix" values="0 0 0 0 0.0770313 0 0 0 0 0.6375 0 0 0 0 0.178935 0 0 0 0.09 0"/>
<feBlend mode="normal" in2="effect4_innerShadow_1_1035" result="effect5_innerShadow_1_1035"/>
</filter>
<filter id="filter2_bdii_1_1035" x="-2.15059" y="34.0699" width="41.4142" height="38.703" filterUnits="userSpaceOnUse" color-interpolation-filters="sRGB">
<feFlood flood-opacity="0" result="BackgroundImageFix"/>
<feGaussianBlur in="BackgroundImageFix" stdDeviation="3.2382"/>
<feComposite in2="SourceAlpha" operator="in" result="effect1_backgroundBlur_1_1035"/>
<feColorMatrix in="SourceAlpha" type="matrix" values="0 0 0 0 0 0 0 0 0 0 0 0 0 0 0 0 0 0 127 0" result="hardAlpha"/>
<feOffset dx="2.91438" dy="1.6191"/>
<feGaussianBlur stdDeviation="3.2382"/>
<feColorMatrix type="matrix" values="0 0 0 0 0.0690278 0 0 0 0 0.295833 0 0 0 0 0.11166 0 0 0 0.08 0"/>
<feBlend mode="normal" in2="effect1_backgroundBlur_1_1035" result="effect2_dropShadow_1_1035"/>
<feBlend mode="normal" in="SourceGraphic" in2="effect2_dropShadow_1_1035" result="shape"/>
<feColorMatrix in="SourceAlpha" type="matrix" values="0 0 0 0 0 0 0 0 0 0 0 0 0 0 0 0 0 0 127 0" result="hardAlpha"/>
<feOffset/>
<feGaussianBlur stdDeviation="1.6191"/>
<feComposite in2="hardAlpha" operator="arithmetic" k2="-1" k3="1"/>
<feColorMatrix type="matrix" values="0 0 0 0 0.156863 0 0 0 0 0.67451 0 0 0 0 0.25098 0 0 0 0.2 0"/>
<feBlend mode="normal" in2="shape" result="effect3_innerShadow_1_1035"/>
<feColorMatrix in="SourceAlpha" type="matrix" values="0 0 0 0 0 0 0 0 0 0 0 0 0 0 0 0 0 0 127 0" result="hardAlpha"/>
<feOffset dx="-0.97146" dy="1.94292"/>
<feGaussianBlur stdDeviation="2.42865"/>
<feComposite in2="hardAlpha" operator="arithmetic" k2="-1" k3="1"/>
<feColorMatrix type="matrix" values="0 0 0 0 0.0770313 0 0 0 0 0.6375 0 0 0 0 0.178935 0 0 0 0.09 0"/>
<feBlend mode="normal" in2="effect3_innerShadow_1_1035" result="effect4_innerShadow_1_1035"/>
</filter>
<filter id="filter3_biii_1_1035" x="11.3226" y="-3.8108" width="63.18" height="63.1889" filterUnits="userSpaceOnUse" color-interpolation-filters="sRGB">
<feFlood flood-opacity="0" result="BackgroundImageFix"/>
<feGaussianBlur in="BackgroundImageFix" stdDeviation="2.2511"/>
<feComposite in2="SourceAlpha" operator="in" result="effect1_backgroundBlur_1_1035"/>
<feBlend mode="normal" in="SourceGraphic" in2="effect1_backgroundBlur_1_1035" result="shape"/>
<feColorMatrix in="SourceAlpha" type="matrix" values="0 0 0 0 0 0 0 0 0 0 0 0 0 0 0 0 0 0 127 0" result="hardAlpha"/>
<feOffset dy="1.12555"/>
<feGaussianBlur stdDeviation="2.2511"/>
<feComposite in2="hardAlpha" operator="arithmetic" k2="-1" k3="1"/>
<feColorMatrix type="matrix" values="0 0 0 0 1 0 0 0 0 1 0 0 0 0 1 0 0 0 0.3 0"/>
<feBlend mode="normal" in2="shape" result="effect2_innerShadow_1_1035"/>
<feColorMatrix in="SourceAlpha" type="matrix" values="0 0 0 0 0 0 0 0 0 0 0 0 0 0 0 0 0 0 127 0" result="hardAlpha"/>
<feOffset dy="-1.12555"/>
<feGaussianBlur stdDeviation="2.2511"/>
<feComposite in2="hardAlpha" operator="arithmetic" k2="-1" k3="1"/>
<feColorMatrix type="matrix" values="0 0 0 0 1 0 0 0 0 1 0 0 0 0 1 0 0 0 0.5 0"/>
<feBlend mode="normal" in2="effect2_innerShadow_1_1035" result="effect3_innerShadow_1_1035"/>
<feColorMatrix in="SourceAlpha" type="matrix" values="0 0 0 0 0 0 0 0 0 0 0 0 0 0 0 0 0 0 127 0" result="hardAlpha"/>
<feOffset dy="1.12555"/>
<feGaussianBlur stdDeviation="24.7621"/>
<feComposite in2="hardAlpha" operator="arithmetic" k2="-1" k3="1"/>
<feColorMatrix type="matrix" values="0 0 0 0 0.823529 0 0 0 0 0.105882 0 0 0 0 0.603922 0 0 0 0.45 0"/>
<feBlend mode="normal" in2="effect3_innerShadow_1_1035" result="effect4_innerShadow_1_1035"/>
</filter>
<filter id="filter4_biii_1_1035" x="27.5807" y="33.8658" width="28.8025" height="40.2759" filterUnits="userSpaceOnUse" color-interpolation-filters="sRGB">
<feFlood flood-opacity="0" result="BackgroundImageFix"/>
<feGaussianBlur in="BackgroundImageFix" stdDeviation="2.2511"/>
<feComposite in2="SourceAlpha" operator="in" result="effect1_backgroundBlur_1_1035"/>
<feBlend mode="normal" in="SourceGraphic" in2="effect1_backgroundBlur_1_1035" result="shape"/>
<feColorMatrix in="SourceAlpha" type="matrix" values="0 0 0 0 0 0 0 0 0 0 0 0 0 0 0 0 0 0 127 0" result="hardAlpha"/>
<feOffset dy="-1.12555"/>
<feGaussianBlur stdDeviation="2.2511"/>
<feComposite in2="hardAlpha" operator="arithmetic" k2="-1" k3="1"/>
<feColorMatrix type="matrix" values="0 0 0 0 0 0 0 0 0 0.488372 0 0 0 0 1 0 0 0 0.15 0"/>
<feBlend mode="normal" in2="shape" result="effect2_innerShadow_1_1035"/>
<feColorMatrix in="SourceAlpha" type="matrix" values="0 0 0 0 0 0 0 0 0 0 0 0 0 0 0 0 0 0 127 0" result="hardAlpha"/>
<feOffset dy="1.12555"/>
<feGaussianBlur stdDeviation="24.7621"/>
<feComposite in2="hardAlpha" operator="arithmetic" k2="-1" k3="1"/>
<feColorMatrix type="matrix" values="0 0 0 0 1 0 0 0 0 0 0 0 0 0 0.9 0 0 0 0.15 0"/>
<feBlend mode="normal" in2="effect2_innerShadow_1_1035" result="effect3_innerShadow_1_1035"/>
<feColorMatrix in="SourceAlpha" type="matrix" values="0 0 0 0 0 0 0 0 0 0 0 0 0 0 0 0 0 0 127 0" result="hardAlpha"/>
<feOffset dx="1.12555" dy="1.12555"/>
<feGaussianBlur stdDeviation="1.12555"/>
<feComposite in2="hardAlpha" operator="arithmetic" k2="-1" k3="1"/>
<feColorMatrix type="matrix" values="0 0 0 0 0.658333 0 0 0 0 0 0 0 0 0 0.5925 0 0 0 1 0"/>
<feBlend mode="normal" in2="effect3_innerShadow_1_1035" result="effect4_innerShadow_1_1035"/>
</filter>
<filter id="filter5_biii_1_1035" x="-3.35542" y="15.8685" width="40.5543" height="28.3699" filterUnits="userSpaceOnUse" color-interpolation-filters="sRGB">
<feFlood flood-opacity="0" result="BackgroundImageFix"/>
<feGaussianBlur in="BackgroundImageFix" stdDeviation="2.2511"/>
<feComposite in2="SourceAlpha" operator="in" result="effect1_backgroundBlur_1_1035"/>
<feBlend mode="normal" in="SourceGraphic" in2="effect1_backgroundBlur_1_1035" result="shape"/>
<feColorMatrix in="SourceAlpha" type="matrix" values="0 0 0 0 0 0 0 0 0 0 0 0 0 0 0 0 0 0 127 0" result="hardAlpha"/>
<feOffset dy="-1.12555"/>
<feGaussianBlur stdDeviation="2.2511"/>
<feComposite in2="hardAlpha" operator="arithmetic" k2="-1" k3="1"/>
<feColorMatrix type="matrix" values="0 0 0 0 0 0 0 0 0 0.488372 0 0 0 0 1 0 0 0 0.15 0"/>
<feBlend mode="normal" in2="shape" result="effect2_innerShadow_1_1035"/>
<feColorMatrix in="SourceAlpha" type="matrix" values="0 0 0 0 0 0 0 0 0 0 0 0 0 0 0 0 0 0 127 0" result="hardAlpha"/>
<feOffset dy="1.12555"/>
<feGaussianBlur stdDeviation="24.7621"/>
<feComposite in2="hardAlpha" operator="arithmetic" k2="-1" k3="1"/>
<feColorMatrix type="matrix" values="0 0 0 0 1 0 0 0 0 0 0 0 0 0 0.9 0 0 0 0.15 0"/>
<feBlend mode="normal" in2="effect2_innerShadow_1_1035" result="effect3_innerShadow_1_1035"/>
<feColorMatrix in="SourceAlpha" type="matrix" values="0 0 0 0 0 0 0 0 0 0 0 0 0 0 0 0 0 0 127 0" result="hardAlpha"/>
<feOffset dx="1.12555" dy="1.12555"/>
<feGaussianBlur stdDeviation="1.12555"/>
<feComposite in2="hardAlpha" operator="arithmetic" k2="-1" k3="1"/>
<feColorMatrix type="matrix" values="0 0 0 0 0.658333 0 0 0 0 0 0 0 0 0 0.5925 0 0 0 1 0"/>
<feBlend mode="normal" in2="effect3_innerShadow_1_1035" result="effect4_innerShadow_1_1035"/>
</filter>
<filter id="filter6_bdiii_1_1035" x="5.87577" y="44.0871" width="23.509" height="22.2129" filterUnits="userSpaceOnUse" color-interpolation-filters="sRGB">
<feFlood flood-opacity="0" result="BackgroundImageFix"/>
<feGaussianBlur in="BackgroundImageFix" stdDeviation="3.2382"/>
<feComposite in2="SourceAlpha" operator="in" result="effect1_backgroundBlur_1_1035"/>
<feColorMatrix in="SourceAlpha" type="matrix" values="0 0 0 0 0 0 0 0 0 0 0 0 0 0 0 0 0 0 127 0" result="hardAlpha"/>
<feOffset dx="2.91438" dy="1.6191"/>
<feGaussianBlur stdDeviation="3.2382"/>
<feColorMatrix type="matrix" values="0 0 0 0 0.0690278 0 0 0 0 0.295833 0 0 0 0 0.11166 0 0 0 0.08 0"/>
<feBlend mode="normal" in2="effect1_backgroundBlur_1_1035" result="effect2_dropShadow_1_1035"/>
<feBlend mode="normal" in="SourceGraphic" in2="effect2_dropShadow_1_1035" result="shape"/>
<feColorMatrix in="SourceAlpha" type="matrix" values="0 0 0 0 0 0 0 0 0 0 0 0 0 0 0 0 0 0 127 0" result="hardAlpha"/>
<feOffset dx="-3.2382" dy="3.2382"/>
<feGaussianBlur stdDeviation="1.6191"/>
<feComposite in2="hardAlpha" operator="arithmetic" k2="-1" k3="1"/>
<feColorMatrix type="matrix" values="0 0 0 0 1 0 0 0 0 1 0 0 0 0 1 0 0 0 0.15 0"/>
<feBlend mode="normal" in2="shape" result="effect3_innerShadow_1_1035"/>
<feColorMatrix in="SourceAlpha" type="matrix" values="0 0 0 0 0 0 0 0 0 0 0 0 0 0 0 0 0 0 127 0" result="hardAlpha"/>
<feOffset dy="-3.2382"/>
<feGaussianBlur stdDeviation="1.6191"/>
<feComposite in2="hardAlpha" operator="arithmetic" k2="-1" k3="1"/>
<feColorMatrix type="matrix" values="0 0 0 0 0.156863 0 0 0 0 0.67451 0 0 0 0 0.25098 0 0 0 0.3 0"/>
<feBlend mode="normal" in2="effect3_innerShadow_1_1035" result="effect4_innerShadow_1_1035"/>
<feColorMatrix in="SourceAlpha" type="matrix" values="0 0 0 0 0 0 0 0 0 0 0 0 0 0 0 0 0 0 127 0" result="hardAlpha"/>
<feOffset dx="-0.97146" dy="1.94292"/>
<feGaussianBlur stdDeviation="2.42865"/>
<feComposite in2="hardAlpha" operator="arithmetic" k2="-1" k3="1"/>
<feColorMatrix type="matrix" values="0 0 0 0 0.0770313 0 0 0 0 0.6375 0 0 0 0 0.178935 0 0 0 0.09 0"/>
<feBlend mode="normal" in2="effect4_innerShadow_1_1035" result="effect5_innerShadow_1_1035"/>
</filter>
<filter id="filter7_biiii_1_1035" x="-0.176402" y="36.0442" width="34.5514" height="33.1355" filterUnits="userSpaceOnUse" color-interpolation-filters="sRGB">
<feFlood flood-opacity="0" result="BackgroundImageFix"/>
<feGaussianBlur in="BackgroundImageFix" stdDeviation="2.2511"/>
<feComposite in2="SourceAlpha" operator="in" result="effect1_backgroundBlur_1_1035"/>
<feBlend mode="normal" in="SourceGraphic" in2="effect1_backgroundBlur_1_1035" result="shape"/>
<feColorMatrix in="SourceAlpha" type="matrix" values="0 0 0 0 0 0 0 0 0 0 0 0 0 0 0 0 0 0 127 0" result="hardAlpha"/>
<feOffset dy="1.12555"/>
<feGaussianBlur stdDeviation="2.2511"/>
<feComposite in2="hardAlpha" operator="arithmetic" k2="-1" k3="1"/>
<feColorMatrix type="matrix" values="0 0 0 0 0.756073 0 0 0 0 0.0255208 0 0 0 0 0.875 0 0 0 0.3 0"/>
<feBlend mode="normal" in2="shape" result="effect2_innerShadow_1_1035"/>
<feColorMatrix in="SourceAlpha" type="matrix" values="0 0 0 0 0 0 0 0 0 0 0 0 0 0 0 0 0 0 127 0" result="hardAlpha"/>
<feOffset dy="-1.12555"/>
<feGaussianBlur stdDeviation="2.2511"/>
<feComposite in2="hardAlpha" operator="arithmetic" k2="-1" k3="1"/>
<feColorMatrix type="matrix" values="0 0 0 0 0 0 0 0 0 0.423256 0 0 0 0 0.866667 0 0 0 0.5 0"/>
<feBlend mode="normal" in2="effect2_innerShadow_1_1035" result="effect3_innerShadow_1_1035"/>
<feColorMatrix in="SourceAlpha" type="matrix" values="0 0 0 0 0 0 0 0 0 0 0 0 0 0 0 0 0 0 127 0" result="hardAlpha"/>
<feOffset dy="1.12555"/>
<feGaussianBlur stdDeviation="24.7621"/>
<feComposite in2="hardAlpha" operator="arithmetic" k2="-1" k3="1"/>
<feColorMatrix type="matrix" values="0 0 0 0 0.766667 0 0 0 0 0 0 0 0 0 0.644 0 0 0 0.45 0"/>
<feBlend mode="normal" in2="effect3_innerShadow_1_1035" result="effect4_innerShadow_1_1035"/>
<feColorMatrix in="SourceAlpha" type="matrix" values="0 0 0 0 0 0 0 0 0 0 0 0 0 0 0 0 0 0 127 0" result="hardAlpha"/>
<feOffset dx="1.12555" dy="1.12555"/>
<feGaussianBlur stdDeviation="1.12555"/>
<feComposite in2="hardAlpha" operator="arithmetic" k2="-1" k3="1"/>
<feColorMatrix type="matrix" values="0 0 0 0 1 0 0 0 0 1 0 0 0 0 1 0 0 0 1 0"/>
<feBlend mode="normal" in2="effect4_innerShadow_1_1035" result="effect5_innerShadow_1_1035"/>
</filter>
<filter id="filter8_bdii_1_1035" x="-2.15059" y="34.07" width="41.4142" height="38.703" filterUnits="userSpaceOnUse" color-interpolation-filters="sRGB">
<feFlood flood-opacity="0" result="BackgroundImageFix"/>
<feGaussianBlur in="BackgroundImageFix" stdDeviation="3.2382"/>
<feComposite in2="SourceAlpha" operator="in" result="effect1_backgroundBlur_1_1035"/>
<feColorMatrix in="SourceAlpha" type="matrix" values="0 0 0 0 0 0 0 0 0 0 0 0 0 0 0 0 0 0 127 0" result="hardAlpha"/>
<feOffset dx="2.91438" dy="1.6191"/>
<feGaussianBlur stdDeviation="3.2382"/>
<feColorMatrix type="matrix" values="0 0 0 0 0.0690278 0 0 0 0 0.295833 0 0 0 0 0.11166 0 0 0 0.08 0"/>
<feBlend mode="normal" in2="effect1_backgroundBlur_1_1035" result="effect2_dropShadow_1_1035"/>
<feBlend mode="normal" in="SourceGraphic" in2="effect2_dropShadow_1_1035" result="shape"/>
<feColorMatrix in="SourceAlpha" type="matrix" values="0 0 0 0 0 0 0 0 0 0 0 0 0 0 0 0 0 0 127 0" result="hardAlpha"/>
<feOffset/>
<feGaussianBlur stdDeviation="1.6191"/>
<feComposite in2="hardAlpha" operator="arithmetic" k2="-1" k3="1"/>
<feColorMatrix type="matrix" values="0 0 0 0 0.156863 0 0 0 0 0.67451 0 0 0 0 0.25098 0 0 0 0.2 0"/>
<feBlend mode="normal" in2="shape" result="effect3_innerShadow_1_1035"/>
<feColorMatrix in="SourceAlpha" type="matrix" values="0 0 0 0 0 0 0 0 0 0 0 0 0 0 0 0 0 0 127 0" result="hardAlpha"/>
<feOffset dx="-0.97146" dy="1.94292"/>
<feGaussianBlur stdDeviation="2.42865"/>
<feComposite in2="hardAlpha" operator="arithmetic" k2="-1" k3="1"/>
<feColorMatrix type="matrix" values="0 0 0 0 0.0770313 0 0 0 0 0.6375 0 0 0 0 0.178935 0 0 0 0.09 0"/>
<feBlend mode="normal" in2="effect3_innerShadow_1_1035" result="effect4_innerShadow_1_1035"/>
</filter>
<filter id="filter9_biiii_1_1035" x="36.6439" y="7.45531" width="25.4922" height="25.4922" filterUnits="userSpaceOnUse" color-interpolation-filters="sRGB">
<feFlood flood-opacity="0" result="BackgroundImageFix"/>
<feGaussianBlur in="BackgroundImageFix" stdDeviation="2.2511"/>
<feComposite in2="SourceAlpha" operator="in" result="effect1_backgroundBlur_1_1035"/>
<feBlend mode="normal" in="SourceGraphic" in2="effect1_backgroundBlur_1_1035" result="shape"/>
<feColorMatrix in="SourceAlpha" type="matrix" values="0 0 0 0 0 0 0 0 0 0 0 0 0 0 0 0 0 0 127 0" result="hardAlpha"/>
<feOffset dy="1.12555"/>
<feGaussianBlur stdDeviation="2.2511"/>
<feComposite in2="hardAlpha" operator="arithmetic" k2="-1" k3="1"/>
<feColorMatrix type="matrix" values="0 0 0 0 1 0 0 0 0 1 0 0 0 0 1 0 0 0 0.3 0"/>
<feBlend mode="normal" in2="shape" result="effect2_innerShadow_1_1035"/>
<feColorMatrix in="SourceAlpha" type="matrix" values="0 0 0 0 0 0 0 0 0 0 0 0 0 0 0 0 0 0 127 0" result="hardAlpha"/>
<feOffset dy="-1.12555"/>
<feGaussianBlur stdDeviation="2.2511"/>
<feComposite in2="hardAlpha" operator="arithmetic" k2="-1" k3="1"/>
<feColorMatrix type="matrix" values="0 0 0 0 0.333333 0 0 0 0 0.580392 0 0 0 0 0.839216 0 0 0 0.5 0"/>
<feBlend mode="normal" in2="effect2_innerShadow_1_1035" result="effect3_innerShadow_1_1035"/>
<feColorMatrix in="SourceAlpha" type="matrix" values="0 0 0 0 0 0 0 0 0 0 0 0 0 0 0 0 0 0 127 0" result="hardAlpha"/>
<feOffset dy="1.12555"/>
<feGaussianBlur stdDeviation="24.7621"/>
<feComposite in2="hardAlpha" operator="arithmetic" k2="-1" k3="1"/>
<feColorMatrix type="matrix" values="0 0 0 0 0.415686 0 0 0 0 0.494118 0 0 0 0 0.792157 0 0 0 1 0"/>
<feBlend mode="normal" in2="effect3_innerShadow_1_1035" result="effect4_innerShadow_1_1035"/>
<feColorMatrix in="SourceAlpha" type="matrix" values="0 0 0 0 0 0 0 0 0 0 0 0 0 0 0 0 0 0 127 0" result="hardAlpha"/>
<feOffset dx="1.12555" dy="1.12555"/>
<feGaussianBlur stdDeviation="1.12555"/>
<feComposite in2="hardAlpha" operator="arithmetic" k2="-1" k3="1"/>
<feColorMatrix type="matrix" values="0 0 0 0 0.24349 0 0 0 0 0.443151 0 0 0 0 0.779167 0 0 0 1 0"/>
<feBlend mode="normal" in2="effect4_innerShadow_1_1035" result="effect5_innerShadow_1_1035"/>
</filter>
<filter id="filter10_biiii_1_1035" x="36.6439" y="7.45531" width="25.4922" height="25.4922" filterUnits="userSpaceOnUse" color-interpolation-filters="sRGB">
<feFlood flood-opacity="0" result="BackgroundImageFix"/>
<feGaussianBlur in="BackgroundImageFix" stdDeviation="2.2511"/>
<feComposite in2="SourceAlpha" operator="in" result="effect1_backgroundBlur_1_1035"/>
<feBlend mode="normal" in="SourceGraphic" in2="effect1_backgroundBlur_1_1035" result="shape"/>
<feColorMatrix in="SourceAlpha" type="matrix" values="0 0 0 0 0 0 0 0 0 0 0 0 0 0 0 0 0 0 127 0" result="hardAlpha"/>
<feOffset dy="1.12555"/>
<feGaussianBlur stdDeviation="2.2511"/>
<feComposite in2="hardAlpha" operator="arithmetic" k2="-1" k3="1"/>
<feColorMatrix type="matrix" values="0 0 0 0 1 0 0 0 0 1 0 0 0 0 1 0 0 0 0.3 0"/>
<feBlend mode="normal" in2="shape" result="effect2_innerShadow_1_1035"/>
<feColorMatrix in="SourceAlpha" type="matrix" values="0 0 0 0 0 0 0 0 0 0 0 0 0 0 0 0 0 0 127 0" result="hardAlpha"/>
<feOffset dy="-1.12555"/>
<feGaussianBlur stdDeviation="2.2511"/>
<feComposite in2="hardAlpha" operator="arithmetic" k2="-1" k3="1"/>
<feColorMatrix type="matrix" values="0 0 0 0 0.333333 0 0 0 0 0.580392 0 0 0 0 0.839216 0 0 0 0.5 0"/>
<feBlend mode="normal" in2="effect2_innerShadow_1_1035" result="effect3_innerShadow_1_1035"/>
<feColorMatrix in="SourceAlpha" type="matrix" values="0 0 0 0 0 0 0 0 0 0 0 0 0 0 0 0 0 0 127 0" result="hardAlpha"/>
<feOffset dy="1.12555"/>
<feGaussianBlur stdDeviation="24.7621"/>
<feComposite in2="hardAlpha" operator="arithmetic" k2="-1" k3="1"/>
<feColorMatrix type="matrix" values="0 0 0 0 0.836967 0 0 0 0 0.606701 0 0 0 0 0.841667 0 0 0 0.45 0"/>
<feBlend mode="normal" in2="effect3_innerShadow_1_1035" result="effect4_innerShadow_1_1035"/>
<feColorMatrix in="SourceAlpha" type="matrix" values="0 0 0 0 0 0 0 0 0 0 0 0 0 0 0 0 0 0 127 0" result="hardAlpha"/>
<feOffset dx="1.12555" dy="1.12555"/>
<feGaussianBlur stdDeviation="1.12555"/>
<feComposite in2="hardAlpha" operator="arithmetic" k2="-1" k3="1"/>
<feColorMatrix type="matrix" values="0 0 0 0 1 0 0 0 0 1 0 0 0 0 1 0 0 0 1 0"/>
<feBlend mode="normal" in2="effect4_innerShadow_1_1035" result="effect5_innerShadow_1_1035"/>
</filter>
<linearGradient id="paint0_linear_1_1035" x1="64.02" y1="0.691405" x2="50.5553" y2="61.2132" gradientUnits="userSpaceOnUse">
<stop stop-color="#9BE15D"/>
<stop offset="1" stop-color="#00E3AE"/>
</linearGradient>
<linearGradient id="paint1_linear_1_1035" x1="19.1485" y1="50.5635" x2="17.2502" y2="59.0984" gradientUnits="userSpaceOnUse">
<stop stop-color="#9BE15D"/>
<stop offset="1" stop-color="#00E3AE"/>
</linearGradient>
<linearGradient id="paint2_linear_1_1035" x1="10.2062" y1="48.8471" x2="8.56692" y2="56.2239" gradientUnits="userSpaceOnUse">
<stop stop-color="#9BE15D"/>
<stop offset="1" stop-color="#00E3AE"/>
</linearGradient>
<linearGradient id="paint3_linear_1_1035" x1="18.8222" y1="27.7848" x2="69.9115" y2="27.7848" gradientUnits="userSpaceOnUse">
<stop stop-color="#5594D6"/>
<stop offset="1" stop-color="#D21B9A"/>
</linearGradient>
<linearGradient id="paint4_linear_1_1035" x1="22.1013" y1="29.2631" x2="54.9561" y2="27.6355" gradientUnits="userSpaceOnUse">
<stop stop-color="#3F51B1"/>
<stop offset="0.13" stop-color="#5A55AE"/>
<stop offset="0.25" stop-color="#7B5FAC"/>
<stop offset="0.38" stop-color="#8F6AAE"/>
<stop offset="0.5" stop-color="#A86AA4"/>
<stop offset="0.62" stop-color="#CC6B8E"/>
<stop offset="0.75" stop-color="#F18271"/>
<stop offset="0.87" stop-color="#F3C469"/>
<stop offset="1" stop-color="#FFC700"/>
</linearGradient>
<linearGradient id="paint5_linear_1_1035" x1="15.9807" y1="40.4733" x2="19.1612" y2="18.8417" gradientUnits="userSpaceOnUse">
<stop stop-color="#5594D6"/>
<stop offset="1" stop-color="#D21B9A"/>
</linearGradient>
<linearGradient id="paint6_linear_1_1035" x1="19.1505" y1="50.5635" x2="17.2522" y2="59.0984" gradientUnits="userSpaceOnUse">
<stop stop-color="#9BE15D"/>
<stop offset="1" stop-color="#00E3AE"/>
</linearGradient>
<linearGradient id="paint7_linear_1_1035" x1="5.73925" y1="52.6125" x2="29.8309" y2="52.6125" gradientUnits="userSpaceOnUse">
<stop stop-color="#5594D6"/>
<stop offset="1" stop-color="#D21B9A"/>
</linearGradient>
<linearGradient id="paint8_linear_1_1035" x1="55.8139" y1="11.9575" x2="51.7173" y2="30.374" gradientUnits="userSpaceOnUse">
<stop stop-color="#F18271"/>
<stop offset="1" stop-color="#F18271"/>
</linearGradient>
<linearGradient id="paint9_linear_1_1035" x1="42.0584" y1="20.2018" x2="57.6069" y2="20.2018" gradientUnits="userSpaceOnUse">
<stop stop-color="#5594D6"/>
<stop offset="1" stop-color="#D21B9A"/>
</linearGradient>
</defs>
</svg>
