<svg width="7" height="12" viewBox="0 0 7 12" fill="none" xmlns="http://www.w3.org/2000/svg">
<path d="M5.49999 5.25001C5.08578 5.25002 4.75 5.58582 4.75002 6.00003C4.75003 6.41425 5.08582 6.75002 5.50004 6.75001L5.49999 5.25001ZM6.53034 6.53032C6.82323 6.23741 6.82322 5.76254 6.53032 5.46966L1.75721 0.696814C1.46431 0.403929 0.98944 0.403942 0.696554 0.696843C0.403669 0.989744 0.403682 1.46462 0.696583 1.7575L4.93934 6.00003L0.696814 10.2428C0.403929 10.5357 0.403942 11.0106 0.696843 11.3034C0.989744 11.5963 1.46462 11.5963 1.7575 11.3034L6.53034 6.53032ZM5.50004 6.75001L6.00002 6.75L5.99998 5.25L5.49999 5.25001L5.50004 6.75001Z" fill="#D21B9A"/>
</svg>
